<?xml version="1.0" encoding="UTF-8"?>
<svg id="Layer_1" xmlns="http://www.w3.org/2000/svg" version="1.1" viewBox="0 0 201.88 155.88">
  <!-- Generator: Adobe Illustrator 29.0.0, SVG Export Plug-In . SVG Version: 2.1.0 Build 186)  -->
  <defs>
    <style>
      .st0 {
        fill: #f49800;
      }

      .st1 {
        fill: #0084cc;
      }

      .st2 {
        fill: #7ab929;
      }
    </style>
  </defs>
  <path class="st1" d="M53.73,97.98c-1.9,2.37-4.1,4.23-6.54,5.51-2.42,1.27-5.23,1.92-8.38,1.92-2.63,0-5.13-.46-7.44-1.38-2.3-.91-4.32-2.22-6.02-3.89-1.7-1.67-3.06-3.72-4.06-6.11-1-2.38-1.5-5.09-1.5-8.04s.5-5.66,1.5-8.04c.99-2.38,2.36-4.44,4.06-6.11,1.69-1.67,3.72-2.98,6.02-3.89,2.31-.92,4.81-1.38,7.44-1.38,2.97,0,5.57.57,7.71,1.71,2.18,1.15,4.13,2.73,5.81,4.67l.72.84,9.42-9.12-.67-.75c-2.91-3.25-6.29-5.78-10.04-7.49-3.76-1.72-8.14-2.59-13.04-2.59-4.56,0-8.85.84-12.76,2.5-3.91,1.65-7.34,3.94-10.19,6.8-2.86,2.86-5.14,6.29-6.8,10.19-1.66,3.91-2.5,8.18-2.5,12.68s.84,8.77,2.5,12.68c1.65,3.91,3.94,7.34,6.8,10.19,2.86,2.86,6.28,5.14,10.19,6.8,3.91,1.66,8.21,2.5,12.76,2.5,5.07,0,9.72-.97,13.84-2.89,4.12-1.91,7.74-4.74,10.76-8.39l.62-.75-9.52-9.03-.71.89Z"/>
  <path class="st0" d="M111.73,89.97c1.63-1.13,3.07-2.46,4.29-3.94,1.23-1.5,2.21-3.19,2.92-5.04.71-1.86,1.07-3.87,1.07-5.99,0-2.84-.5-5.51-1.49-7.93-1-2.43-2.44-4.55-4.28-6.31-1.84-1.75-4.07-3.14-6.63-4.13-2.55-.99-5.42-1.49-8.53-1.49h-22.76v61.67h13.32v-22.38h3.65l15.39,22.38h14.49v-2.04l-15.7-22.49c1.48-.6,2.91-1.38,4.27-2.33ZM106.68,74.84c0,2.11-.7,3.79-2.13,5.15-1.45,1.37-3.27,2.04-5.56,2.04h-9.36v-14.47h9.52c1.23,0,2.34.21,3.29.62.94.41,1.74.96,2.35,1.62.63.68,1.09,1.44,1.41,2.31.32.88.48,1.8.48,2.72Z"/>
  <polygon class="st2" points="182.34 55.15 164.39 86.22 146.44 55.15 133.72 55.15 133.72 116.82 146.88 116.82 146.88 86.33 146.43 79.57 160.45 104.18 168.41 104.18 182.35 79.58 181.9 86.4 181.9 116.82 195.14 116.82 195.14 55.15 182.34 55.15"/>
</svg>