<?xml version="1.0" encoding="UTF-8"?>
<svg xmlns="http://www.w3.org/2000/svg" version="1.1" xmlns:xlink="http://www.w3.org/1999/xlink" viewBox="0 0 301.74 301.94">
  <!-- Generator: Adobe Illustrator 29.0.0, SVG Export Plug-In . SVG Version: 2.1.0 Build 186)  -->
  <defs>
    <style>
      .st0 {
        fill: url(#linear-gradient75);
      }

      .st1 {
        fill: url(#linear-gradient2);
      }

      .st2 {
        fill: url(#linear-gradient81);
      }

      .st3 {
        fill: url(#linear-gradient24);
      }

      .st3, .st4, .st5, .st6, .st7 {
        mix-blend-mode: multiply;
      }

      .st3, .st8, .st6, .st7 {
        opacity: .5;
      }

      .st9 {
        fill: url(#linear-gradient39);
      }

      .st10 {
        stroke: #232231;
        stroke-linejoin: round;
      }

      .st10, .st11, .st12, .st13, .st14, .st15 {
        fill: none;
      }

      .st10, .st14 {
        stroke-linecap: round;
      }

      .st4 {
        fill: url(#linear-gradient6);
      }

      .st16 {
        fill: url(#linear-gradient34);
      }

      .st17 {
        fill: url(#linear-gradient58);
      }

      .st18 {
        fill: url(#linear-gradient73);
      }

      .st19 {
        fill: url(#linear-gradient83);
      }

      .st20 {
        fill: url(#linear-gradient33);
      }

      .st21 {
        fill: url(#linear-gradient10);
      }

      .st22 {
        fill: url(#linear-gradient63);
      }

      .st23 {
        fill: #f9cebf;
      }

      .st24 {
        fill: url(#linear-gradient82);
      }

      .st25 {
        fill: url(#linear-gradient71);
      }

      .st26 {
        fill: url(#linear-gradient32);
      }

      .st27 {
        fill: url(#linear-gradient21);
      }

      .st28 {
        fill: url(#linear-gradient85);
      }

      .st29 {
        fill: url(#linear-gradient37);
      }

      .st30 {
        fill: url(#linear-gradient56);
      }

      .st31 {
        fill: url(#linear-gradient27);
      }

      .st32 {
        fill: url(#linear-gradient53);
      }

      .st33 {
        mix-blend-mode: overlay;
        opacity: .4;
      }

      .st33, .st34, .st8 {
        fill: #fff;
      }

      .st35 {
        fill: url(#linear-gradient57);
      }

      .st11 {
        stroke: url(#linear-gradient66);
        stroke-width: 1.19px;
      }

      .st11, .st12, .st14, .st15 {
        stroke-miterlimit: 10;
      }

      .st36 {
        fill: #f39700;
      }

      .st37 {
        fill: url(#linear-gradient35);
      }

      .st38 {
        fill: url(#linear-gradient26);
      }

      .st39 {
        fill: url(#linear-gradient1);
      }

      .st40 {
        fill: url(#linear-gradient9);
      }

      .st41 {
        fill: url(#linear-gradient18);
      }

      .st42 {
        fill: url(#linear-gradient61);
      }

      .st12, .st14 {
        stroke: #fff;
      }

      .st43 {
        fill: #263574;
      }

      .st44 {
        fill: url(#linear-gradient23);
      }

      .st45 {
        fill: url(#linear-gradient72);
      }

      .st46 {
        fill: url(#linear-gradient43);
      }

      .st47 {
        fill: url(#linear-gradient78);
      }

      .st48 {
        fill: url(#linear-gradient69);
      }

      .st49 {
        fill: url(#linear-gradient8);
      }

      .st50 {
        fill: url(#linear-gradient11);
      }

      .st51 {
        fill: url(#linear-gradient16);
      }

      .st52 {
        fill: #f6b7a9;
      }

      .st53 {
        fill: url(#linear-gradient30);
      }

      .st54 {
        fill: url(#linear-gradient46);
      }

      .st55 {
        fill: url(#linear-gradient22);
      }

      .st56 {
        isolation: isolate;
      }

      .st57 {
        fill: url(#linear-gradient29);
      }

      .st58 {
        fill: url(#linear-gradient68);
      }

      .st59 {
        fill: url(#linear-gradient49);
      }

      .st60 {
        fill: url(#linear-gradient19);
      }

      .st61 {
        fill: url(#linear-gradient12);
      }

      .st62 {
        fill: url(#linear-gradient65);
      }

      .st63 {
        fill: url(#linear-gradient80);
      }

      .st64 {
        fill: #ff7885;
      }

      .st65 {
        fill: url(#linear-gradient42);
      }

      .st66 {
        fill: url(#linear-gradient28);
      }

      .st67 {
        fill: url(#linear-gradient67);
      }

      .st68 {
        fill: url(#linear-gradient40);
      }

      .st69 {
        fill: url(#linear-gradient84);
      }

      .st70 {
        fill: url(#linear-gradient62);
      }

      .st71 {
        fill: url(#linear-gradient7);
      }

      .st72 {
        fill: url(#linear-gradient59);
      }

      .st73 {
        fill: #79b82a;
      }

      .st74 {
        fill: url(#linear-gradient20);
      }

      .st75 {
        fill: url(#linear-gradient4);
      }

      .st5, .st76 {
        fill: #eec77c;
      }

      .st77 {
        fill: #e56362;
        opacity: .32;
      }

      .st78 {
        fill: url(#linear-gradient31);
      }

      .st79 {
        font-family: Montserrat-ExtraBold, Montserrat;
        font-size: 43.68px;
        font-weight: 700;
      }

      .st80 {
        fill: #e38f8d;
      }

      .st81 {
        fill: url(#linear-gradient79);
      }

      .st82 {
        fill: url(#linear-gradient5);
      }

      .st83 {
        fill: url(#linear-gradient74);
      }

      .st84 {
        fill: url(#linear-gradient3);
      }

      .st85 {
        fill: url(#linear-gradient87);
      }

      .st86 {
        fill: url(#linear-gradient55);
      }

      .st87 {
        fill: url(#linear-gradient38);
      }

      .st88 {
        fill: #eaedfd;
      }

      .st89 {
        fill: url(#linear-gradient25);
      }

      .st90 {
        fill: #4f6af6;
      }

      .st6 {
        fill: url(#linear-gradient14);
      }

      .st91 {
        fill: #193649;
      }

      .st92 {
        fill: url(#linear-gradient52);
      }

      .st93 {
        fill: url(#linear-gradient15);
      }

      .st94 {
        fill: url(#linear-gradient17);
      }

      .st95 {
        fill: #fdaeaa;
      }

      .st96 {
        fill: url(#linear-gradient54);
      }

      .st97 {
        fill: #68c5e2;
      }

      .st98 {
        fill: url(#linear-gradient50);
      }

      .st99 {
        fill: url(#linear-gradient51);
      }

      .st100 {
        fill: #88aadb;
      }

      .st101 {
        fill: url(#linear-gradient77);
      }

      .st102 {
        fill: url(#linear-gradient86);
      }

      .st103 {
        fill: url(#linear-gradient64);
      }

      .st104 {
        fill: url(#linear-gradient70);
      }

      .st105 {
        fill: url(#linear-gradient76);
      }

      .st106 {
        fill: url(#linear-gradient48);
      }

      .st76 {
        mix-blend-mode: screen;
      }

      .st107 {
        fill: url(#linear-gradient13);
      }

      .st108 {
        fill: url(#linear-gradient45);
      }

      .st109 {
        fill: url(#linear-gradient47);
      }

      .st110 {
        fill: url(#linear-gradient60);
      }

      .st111 {
        fill: url(#linear-gradient);
      }

      .st112 {
        fill: url(#linear-gradient44);
      }

      .st113 {
        clip-path: url(#clippath);
      }

      .st114 {
        fill: url(#linear-gradient41);
      }

      .st115 {
        fill: #0083cb;
      }

      .st116 {
        fill: #e5988f;
      }

      .st117 {
        fill: #ff9e95;
      }

      .st7 {
        fill: url(#linear-gradient36);
      }

      .st15 {
        stroke: #68c5e2;
      }
    </style>
    <linearGradient id="linear-gradient" x1="241.79" y1="-16116.09" x2="241.79" y2="-16155.71" gradientTransform="translate(0 -16077.65) scale(1 -1)" gradientUnits="userSpaceOnUse">
      <stop offset="0" stop-color="#dbecf2"/>
      <stop offset="1" stop-color="#e3f7ff"/>
    </linearGradient>
    <linearGradient id="linear-gradient1" x1="19.46" y1="-16165.92" x2="19.46" y2="-16355.03" xlink:href="#linear-gradient"/>
    <linearGradient id="linear-gradient2" x1="248.27" y1="-16168.16" x2="259.4" y2="-16156.27" xlink:href="#linear-gradient"/>
    <linearGradient id="linear-gradient3" x1="271.16" y1="-16303.47" x2="278.48" y2="-16295.66" xlink:href="#linear-gradient"/>
    <linearGradient id="linear-gradient4" x1="153.68" y1="-16289.63" x2="153.68" y2="-16164.96" gradientTransform="translate(0 -16077.65) scale(1 -1)" gradientUnits="userSpaceOnUse">
      <stop offset="0" stop-color="#c5e0f3"/>
      <stop offset="1" stop-color="#a4d2ef"/>
    </linearGradient>
    <linearGradient id="linear-gradient5" x1="153.68" y1="-16312.66" x2="153.68" y2="-16285.39" xlink:href="#linear-gradient4"/>
    <linearGradient id="linear-gradient6" x1="140.86" y1="-16290.77" x2="166.49" y2="-16290.77" xlink:href="#linear-gradient4"/>
    <linearGradient id="linear-gradient7" x1="153.68" y1="-16316.17" x2="153.68" y2="-16303.91" xlink:href="#linear-gradient4"/>
    <linearGradient id="linear-gradient8" x1="70.74" y1="-16306.2" x2="70.74" y2="-16257.74" gradientTransform="translate(0 -16077.65) scale(1 -1)" gradientUnits="userSpaceOnUse">
      <stop offset="0" stop-color="#263574"/>
      <stop offset="1" stop-color="#15175e"/>
    </linearGradient>
    <linearGradient id="linear-gradient9" x1="59.85" y1="-16305.45" x2="59.85" y2="-16255.86" xlink:href="#linear-gradient8"/>
    <linearGradient id="linear-gradient10" x1="75.57" y1="-16219.25" x2="75.57" y2="-16208.99" gradientTransform="translate(0 -16077.65) scale(1 -1)" gradientUnits="userSpaceOnUse">
      <stop offset="0" stop-color="#282b7e"/>
      <stop offset="1" stop-color="#071a3a"/>
    </linearGradient>
    <linearGradient id="linear-gradient11" x1="266.2" y1="127.11" x2="267.47" y2="138.89" gradientTransform="translate(331.51) rotate(-180) scale(1 -1)" xlink:href="#linear-gradient10"/>
    <linearGradient id="linear-gradient12" x1="264.61" y1="128.8" x2="264.61" y2="139.06" gradientTransform="translate(331.51) rotate(-180) scale(1 -1)" xlink:href="#linear-gradient10"/>
    <linearGradient id="linear-gradient13" x1="78.23" y1="146.91" x2="78.23" y2="177.17" gradientUnits="userSpaceOnUse">
      <stop offset="0" stop-color="#16a4fd"/>
      <stop offset="1" stop-color="#0069f3"/>
    </linearGradient>
    <linearGradient id="linear-gradient14" x1="76.3" y1="-16236.31" x2="76.3" y2="-16241.93" gradientTransform="translate(0 -16077.65) scale(1 -1)" xlink:href="#linear-gradient13"/>
    <linearGradient id="linear-gradient15" x1="68.71" y1="146.91" x2="68.71" y2="177.17" xlink:href="#linear-gradient13"/>
    <linearGradient id="linear-gradient16" x1="61.28" y1="150.55" x2="50.63" y2="175.1" gradientTransform="translate(80.73 5.4) rotate(25.8)" gradientUnits="userSpaceOnUse">
      <stop offset="0" stop-color="#49d3fd"/>
      <stop offset="1" stop-color="#07b9fd"/>
    </linearGradient>
    <linearGradient id="linear-gradient17" x1="59.87" y1="146.91" x2="59.87" y2="177.17" xlink:href="#linear-gradient13"/>
    <linearGradient id="linear-gradient18" x1="259.85" y1="128.8" x2="259.85" y2="139.06" gradientTransform="translate(331.51) rotate(-180) scale(1 -1)" xlink:href="#linear-gradient10"/>
    <linearGradient id="linear-gradient19" x1="88.52" y1="-16254.96" x2="88.52" y2="-16215.28" xlink:href="#linear-gradient8"/>
    <linearGradient id="linear-gradient20" x1="198.14" y1="-16312.85" x2="198.14" y2="-16289.54" xlink:href="#linear-gradient8"/>
    <linearGradient id="linear-gradient21" x1="213.36" y1="-16302.73" x2="213.36" y2="-16275.44" xlink:href="#linear-gradient8"/>
    <linearGradient id="linear-gradient22" x1="191.85" y1="171.17" x2="191.85" y2="186.71" gradientTransform="matrix(1,0,0,1,0,0)" xlink:href="#linear-gradient8"/>
    <linearGradient id="linear-gradient23" x1="206.14" y1="169.55" x2="206.14" y2="198.07" xlink:href="#linear-gradient13"/>
    <linearGradient id="linear-gradient24" x1="207.47" y1="-16253.88" x2="207.47" y2="-16259.62" gradientTransform="translate(0 -16077.65) scale(1 -1)" xlink:href="#linear-gradient13"/>
    <linearGradient id="linear-gradient25" x1="215.36" y1="169.55" x2="215.36" y2="198.07" xlink:href="#linear-gradient13"/>
    <linearGradient id="linear-gradient26" x1="208.94" y1="-16248.71" x2="208.94" y2="-16239.53" gradientTransform="translate(0 -16077.65) scale(1 -1)" gradientUnits="userSpaceOnUse">
      <stop offset="0" stop-color="#12285c"/>
      <stop offset="1" stop-color="#071a3a"/>
    </linearGradient>
    <linearGradient id="linear-gradient27" x1="212.19" y1="-16242.95" x2="212.19" y2="-16233.77" xlink:href="#linear-gradient26"/>
    <linearGradient id="linear-gradient28" x1="224.25" y1="169.55" x2="224.25" y2="198.07" xlink:href="#linear-gradient13"/>
    <linearGradient id="linear-gradient29" x1="199.93" y1="181.95" x2="199.93" y2="205.12" gradientTransform="matrix(1,0,0,1,0,0)" xlink:href="#linear-gradient16"/>
    <linearGradient id="linear-gradient30" x1="251.21" y1="-16256.65" x2="251.21" y2="-16309.17" xlink:href="#linear-gradient8"/>
    <linearGradient id="linear-gradient31" x1="240.53" y1="-16247.02" x2="240.53" y2="-16210.63" gradientTransform="translate(0 -16077.65) scale(1 -1)" xlink:href="#linear-gradient13"/>
    <linearGradient id="linear-gradient32" x1="242.8" y1="-16218.04" x2="242.8" y2="-16208.68" xlink:href="#linear-gradient26"/>
    <linearGradient id="linear-gradient33" x1="247.23" y1="-16218.12" x2="247.23" y2="-16208.77" xlink:href="#linear-gradient26"/>
    <linearGradient id="linear-gradient34" x1="248.91" y1="144.88" x2="248.91" y2="179.35" xlink:href="#linear-gradient13"/>
    <linearGradient id="linear-gradient35" x1="257.21" y1="144.88" x2="257.21" y2="179.35" xlink:href="#linear-gradient13"/>
    <linearGradient id="linear-gradient36" x1="247.11" y1="-16271.31" x2="247.39" y2="-16262.98" xlink:href="#linear-gradient8"/>
    <linearGradient id="linear-gradient37" x1="234.05" y1="150.71" x2="234.05" y2="164.84" gradientTransform="matrix(1,0,0,1,0,0)" xlink:href="#linear-gradient8"/>
    <linearGradient id="linear-gradient38" x1="159.51" y1="175.34" x2="159.51" y2="202.62" gradientTransform="matrix(1,0,0,1,0,0)" xlink:href="#linear-gradient16"/>
    <linearGradient id="linear-gradient39" x1="144.95" y1="-16263.27" x2="144.95" y2="-16257.12" xlink:href="#linear-gradient4"/>
    <linearGradient id="linear-gradient40" x1="144.95" y1="-16269.75" x2="144.95" y2="-16263.6" xlink:href="#linear-gradient4"/>
    <linearGradient id="linear-gradient41" x1="-.15" y1="190.28" x2="-.15" y2="196.43" gradientTransform="translate(173.93) rotate(-180) scale(1 -1)" xlink:href="#linear-gradient4"/>
    <linearGradient id="linear-gradient42" x1="-.15" y1="190.28" x2="-.15" y2="196.43" gradientTransform="translate(173.93) rotate(-180) scale(1 -1)" xlink:href="#linear-gradient4"/>
    <linearGradient id="linear-gradient43" x1="51.17" y1="-16194.37" x2="88.86" y2="-16188.17" gradientTransform="translate(0 -16077.65) scale(1 -1)" gradientUnits="userSpaceOnUse">
      <stop offset="0" stop-color="#fdce00"/>
      <stop offset="1" stop-color="orange"/>
    </linearGradient>
    <linearGradient id="linear-gradient44" x1="51.38" y1="-16195.64" x2="89.07" y2="-16189.45" xlink:href="#linear-gradient43"/>
    <linearGradient id="linear-gradient45" x1="51.59" y1="-16196.92" x2="89.28" y2="-16190.72" xlink:href="#linear-gradient43"/>
    <linearGradient id="linear-gradient46" x1="51.8" y1="-16198.2" x2="89.49" y2="-16192" xlink:href="#linear-gradient43"/>
    <linearGradient id="linear-gradient47" x1="52.01" y1="-16199.48" x2="89.7" y2="-16193.28" xlink:href="#linear-gradient43"/>
    <linearGradient id="linear-gradient48" x1="111.64" y1="77.07" x2="111.64" y2="108.61" gradientTransform="matrix(1,0,0,1,0,0)" xlink:href="#linear-gradient16"/>
    <clipPath id="clippath">
      <circle class="st13" cx="111.72" cy="90.28" r="9.85"/>
    </clipPath>
    <linearGradient id="linear-gradient49" x1="111.64" y1="82.65" x2="111.64" y2="97.79" gradientTransform="matrix(1,0,0,1,0,0)" xlink:href="#linear-gradient10"/>
    <linearGradient id="linear-gradient50" x1="111.96" y1="82.65" x2="111.96" y2="97.79" gradientTransform="matrix(1,0,0,1,0,0)" xlink:href="#linear-gradient10"/>
    <linearGradient id="linear-gradient51" x1="118.76" y1="-16153.16" x2="138.27" y2="-16149.73" xlink:href="#linear-gradient43"/>
    <linearGradient id="linear-gradient52" x1="118.93" y1="-16154.11" x2="138.44" y2="-16150.68" xlink:href="#linear-gradient43"/>
    <linearGradient id="linear-gradient53" x1="119.1" y1="-16155.05" x2="138.6" y2="-16151.62" xlink:href="#linear-gradient43"/>
    <linearGradient id="linear-gradient54" x1="119.26" y1="-16156" x2="138.77" y2="-16152.57" xlink:href="#linear-gradient43"/>
    <linearGradient id="linear-gradient55" x1="98.71" y1="237.82" x2="98.71" y2="199.61" gradientUnits="userSpaceOnUse">
      <stop offset="0" stop-color="#3945b8"/>
      <stop offset="1" stop-color="#44a4fd"/>
    </linearGradient>
    <linearGradient id="linear-gradient56" x1="109.71" y1="237.82" x2="109.71" y2="199.61" xlink:href="#linear-gradient55"/>
    <linearGradient id="linear-gradient57" x1="87.8" y1="237.82" x2="87.8" y2="199.61" xlink:href="#linear-gradient55"/>
    <linearGradient id="linear-gradient58" x1="120.71" y1="237.82" x2="120.71" y2="199.61" xlink:href="#linear-gradient55"/>
    <linearGradient id="linear-gradient59" x1="104.27" y1="-16288.78" x2="104.27" y2="-16270.36" gradientTransform="translate(0 -16077.65) scale(1 -1)" gradientUnits="userSpaceOnUse">
      <stop offset="0" stop-color="#ed4d4e"/>
      <stop offset="1" stop-color="#f13632"/>
    </linearGradient>
    <linearGradient id="linear-gradient60" x1="227.39" y1="-16218.33" x2="227.39" y2="-16203.53" gradientTransform="translate(0 -16077.65) scale(1 -1)" xlink:href="#linear-gradient16"/>
    <linearGradient id="linear-gradient61" x1="220.57" y1="-16213.67" x2="220.57" y2="-16242" xlink:href="#linear-gradient4"/>
    <linearGradient id="linear-gradient62" x1="215.93" y1="-16188.41" x2="200.04" y2="-16212.25" xlink:href="#linear-gradient"/>
    <linearGradient id="linear-gradient63" x1="221.27" y1="-16189.01" x2="207.63" y2="-16209.47" xlink:href="#linear-gradient"/>
    <linearGradient id="linear-gradient64" x1="92.32" y1="177.12" x2="92.32" y2="187.91" gradientTransform="matrix(1,0,0,1,0,0)" xlink:href="#linear-gradient16"/>
    <linearGradient id="linear-gradient65" x1="98.41" y1="177.12" x2="98.41" y2="187.91" gradientTransform="matrix(1,0,0,1,0,0)" xlink:href="#linear-gradient16"/>
    <linearGradient id="linear-gradient66" x1="161.89" y1="-16196.9" x2="203.32" y2="-16196.9" gradientTransform="translate(0 -16077.65) scale(1 -1)" gradientUnits="userSpaceOnUse">
      <stop offset="0" stop-color="#abdff8"/>
      <stop offset="1" stop-color="#d9e9f7"/>
    </linearGradient>
    <linearGradient id="linear-gradient67" x1="198.44" y1="-16190.53" x2="169.24" y2="-16200.94" xlink:href="#linear-gradient66"/>
    <linearGradient id="linear-gradient68" x1="197.3" y1="-16191.77" x2="168.11" y2="-16202.18" xlink:href="#linear-gradient66"/>
    <linearGradient id="linear-gradient69" x1="198.59" y1="-16195.37" x2="169.39" y2="-16205.78" xlink:href="#linear-gradient66"/>
    <linearGradient id="linear-gradient70" x1="196.43" y1="-16193.75" x2="167.23" y2="-16204.16" xlink:href="#linear-gradient66"/>
    <linearGradient id="linear-gradient71" x1="169.87" y1="-16202.28" x2="169.87" y2="-16196.95" gradientTransform="translate(0 -16077.65) scale(1 -1)" xlink:href="#linear-gradient16"/>
    <linearGradient id="linear-gradient72" x1="169.87" y1="-16196.33" x2="169.87" y2="-16190.99" gradientTransform="translate(0 -16077.65) scale(1 -1)" xlink:href="#linear-gradient16"/>
    <linearGradient id="linear-gradient73" x1="55.46" y1="-16211.93" x2="26.27" y2="-16222.35" xlink:href="#linear-gradient66"/>
    <linearGradient id="linear-gradient74" x1="54.33" y1="-16213.17" x2="25.13" y2="-16223.59" xlink:href="#linear-gradient66"/>
    <linearGradient id="linear-gradient75" x1="55.61" y1="-16216.78" x2="26.42" y2="-16227.19" xlink:href="#linear-gradient66"/>
    <linearGradient id="linear-gradient76" x1="53.45" y1="-16215.16" x2="24.26" y2="-16225.57" xlink:href="#linear-gradient66"/>
    <linearGradient id="linear-gradient77" x1="27.54" y1="137.73" x2="27.54" y2="145.14" gradientTransform="matrix(1,0,0,1,0,0)" xlink:href="#linear-gradient16"/>
    <linearGradient id="linear-gradient78" x1="27.54" y1="137.73" x2="27.54" y2="145.14" gradientTransform="matrix(1,0,0,1,0,0)" xlink:href="#linear-gradient16"/>
    <linearGradient id="linear-gradient79" x1="115.67" y1="-16194.22" x2="136.93" y2="-16172.96" xlink:href="#linear-gradient"/>
    <linearGradient id="linear-gradient80" x1="92.63" y1="79.99" x2="92.63" y2="87.63" gradientUnits="userSpaceOnUse">
      <stop offset="0" stop-color="#eb716b"/>
      <stop offset="1" stop-color="#eb544e"/>
    </linearGradient>
    <linearGradient id="linear-gradient81" x1="257.21" y1="106.08" x2="257.21" y2="123.78" gradientUnits="userSpaceOnUse">
      <stop offset="0" stop-color="#eb716b"/>
      <stop offset=".92" stop-color="#eb5651"/>
      <stop offset="1" stop-color="#eb544e"/>
    </linearGradient>
    <linearGradient id="linear-gradient82" x1="143.75" y1="101.49" x2="143.75" y2="120.47" gradientTransform="translate(119.85 -69.44) rotate(45)" xlink:href="#linear-gradient43"/>
    <linearGradient id="linear-gradient83" x1="134.58" y1="-16196.78" x2="151.49" y2="-16179.86" gradientTransform="translate(0 -16077.65) scale(1 -1)" gradientUnits="userSpaceOnUse">
      <stop offset="0" stop-color="#fddf6f"/>
      <stop offset="1" stop-color="#fcb93f"/>
    </linearGradient>
    <linearGradient id="linear-gradient84" x1="38.43" y1="165.5" x2="38.43" y2="177.79" gradientTransform="translate(110.08 11.01) rotate(36.65)" xlink:href="#linear-gradient43"/>
    <linearGradient id="linear-gradient85" x1="32.57" y1="-16255.19" x2="43.37" y2="-16244.39" xlink:href="#linear-gradient83"/>
    <linearGradient id="linear-gradient86" x1="275.75" y1="162.8" x2="275.75" y2="177.18" gradientTransform="matrix(1,0,0,1,0,0)" xlink:href="#linear-gradient43"/>
    <linearGradient id="linear-gradient87" x1="268.14" y1="-16255.16" x2="282.17" y2="-16241.12" gradientTransform="translate(11569.52 -11513.84) rotate(45) scale(1 -1)" xlink:href="#linear-gradient83"/>
  </defs>
  <g class="st56">
    <g id="Layer_1">
      <g>
        <circle class="st33" cx="150.87" cy="150.97" r="149.29"/>
        <g>
          <g>
            <g>
              <circle class="st111" cx="241.79" cy="74.93" r="1.98"/>
              <circle class="st34" cx="212.21" cy="83.5" r="1.98"/>
              <circle class="st34" cx="267.4" cy="138.48" r="9.09" transform="translate(.24 277.41) rotate(-54.85)"/>
              <path class="st34" d="M37.69,223.01c0,4.09-3.31,7.4-7.4,7.4s-7.4-3.31-7.4-7.4,3.31-7.4,7.4-7.4,7.4,3.31,7.4,7.4Z"/>
              <circle class="st39" cx="19.46" cy="162.38" r="12.07"/>
              <circle class="st34" cx="60.54" cy="163.84" r="7.35" transform="translate(-58.09 35.64) rotate(-22.5)"/>
              <line class="st14" x1="35.71" y1="134.39" x2="83.81" y2="134.39"/>
              <g>
                <path class="st34" d="M41.76,203.69h-1.84v-1.84c0-.27-.22-.49-.49-.49s-.49.22-.49.49v1.84h-1.84c-.27,0-.49.22-.49.49s.22.49.49.49h1.84v1.84c0,.27.22.49.49.49s.49-.22.49-.49v-1.84h1.84c.27,0,.49-.22.49-.49s-.22-.49-.49-.49Z"/>
                <path class="st1" d="M255.82,85.48h-2.8v-2.8c0-.41-.33-.74-.74-.74s-.74.33-.74.74v2.8h-2.8c-.41,0-.74.33-.74.74s.33.74.74.74h2.8v2.8c0,.41.33.74.74.74s.74-.33.74-.74v-2.8h2.8c.41,0,.74-.33.74-.74s-.33-.74-.74-.74Z"/>
                <path class="st84" d="M276.12,222.52h-1.84v-1.84c0-.27-.22-.49-.49-.49s-.49.22-.49.49v1.84h-1.84c-.27,0-.49.22-.49.49s.22.49.49.49h1.84v1.84c0,.27.22.49.49.49s.49-.22.49-.49v-1.84h1.84c.27,0,.49-.22.49-.49s-.22-.49-.49-.49Z"/>
              </g>
            </g>
            <g>
              <path class="st34" d="M205.9,96.09v-4.97c0-.49-.39-.88-.88-.88h-1.28c-.37,0-.71-.25-.79-.62-.44-1.93-1.2-3.74-2.22-5.38-.2-.33-.16-.75.11-1.02l.9-.9c.34-.34.34-.9,0-1.25l-3.52-3.52c-.34-.34-.9-.34-1.25,0l-.9.9c-.27.27-.69.31-1.02.11-1.63-1.02-3.45-1.77-5.38-2.22-.37-.08-.62-.42-.62-.79v-1.28c0-.49-.39-.88-.88-.88h-4.97c-.49,0-.88.39-.88.88v1.28c0,.37-.25.71-.62.79-1.93.44-3.75,1.2-5.38,2.22-.33.2-.75.16-1.02-.11l-.9-.9c-.34-.34-.9-.34-1.25,0l-3.52,3.52c-.34.34-.34.9,0,1.25l.9.9c.27.27.31.69.11,1.02-1.02,1.63-1.77,3.45-2.22,5.38-.08.37-.42.62-.79.62h-1.28c-.49,0-.88.39-.88.88v4.97c0,.49.39.88.88.88h1.28c.37,0,.71.25.79.62.44,1.93,1.2,3.74,2.22,5.38.2.33.16.75-.11,1.02l-.9.9c-.34.34-.34.9,0,1.25l3.52,3.52c.34.34.9.34,1.25,0l.9-.9c.27-.27.69-.31,1.02-.11,1.63,1.02,3.45,1.77,5.38,2.21.37.08.62.42.62.79v1.28c0,.49.39.88.88.88h4.97c.49,0,.88-.39.88-.88v-1.28c0-.37.25-.71.62-.79,1.93-.44,3.74-1.2,5.38-2.21.33-.2.75-.16,1.02.11l.9.9c.34.34.9.34,1.25,0l3.52-3.52c.34-.34.34-.9,0-1.25l-.9-.9c-.27-.27-.31-.69-.11-1.02,1.02-1.63,1.77-3.45,2.22-5.38.08-.37.42-.62.79-.62h1.28c.49,0,.88-.39.88-.88ZM185.69,105.26c-6.44,0-11.65-5.22-11.65-11.66s5.21-11.65,11.65-11.65,11.65,5.22,11.65,11.65-5.21,11.66-11.65,11.66Z"/>
              <path class="st34" d="M170.09,79.36v-2.83c0-.28-.22-.5-.5-.5h-.73c-.21,0-.4-.14-.45-.35-.25-1.1-.68-2.13-1.26-3.06-.12-.19-.09-.42.06-.58l.51-.51c.2-.2.2-.51,0-.71l-2-2c-.2-.2-.51-.2-.71,0l-.51.51c-.15.15-.39.18-.58.06-.93-.58-1.96-1.01-3.06-1.26-.21-.05-.35-.24-.35-.45v-.73c0-.28-.22-.5-.5-.5h-2.83c-.28,0-.5.22-.5.5v.73c0,.21-.14.4-.35.45-1.1.25-2.13.68-3.06,1.26-.19.12-.42.09-.58-.06l-.51-.51c-.2-.2-.51-.2-.71,0l-2,2c-.2.2-.2.51,0,.71l.51.51c.15.15.18.39.06.58-.58.93-1.01,1.96-1.26,3.06-.05.21-.24.35-.45.35h-.73c-.28,0-.5.22-.5.5v2.83c0,.28.22.5.5.5h.73c.21,0,.4.14.45.35.25,1.1.68,2.13,1.26,3.06.12.19.09.42-.06.58l-.51.51c-.2.2-.2.51,0,.71l2,2c.2.2.51.2.71,0l.51-.51c.15-.15.39-.18.58-.06.93.58,1.96,1.01,3.06,1.26.21.05.35.24.35.45v.73c0,.28.22.5.5.5h2.83c.28,0,.5-.22.5-.5v-.73c0-.21.14-.4.35-.45,1.1-.25,2.13-.68,3.06-1.26.19-.12.42-.09.58.06l.51.51c.2.2.51.2.71,0l2-2c.2-.2.2-.51,0-.71l-.51-.51c-.15-.15-.18-.39-.06-.58.58-.93,1.01-1.96,1.26-3.06.05-.21.24-.35.45-.35h.73c.28,0,.5-.22.5-.5ZM158.6,83.82c-3.24,0-5.87-2.63-5.87-5.88s2.63-5.87,5.87-5.87,5.87,2.63,5.87,5.87-2.63,5.88-5.87,5.88Z"/>
            </g>
            <g>
              <rect class="st75" x="68.67" y="93.6" width="170.02" height="116.93" rx="9.57" ry="9.57"/>
              <path class="st8" d="M234.52,104.33v86.75c0,1.59-1.29,2.88-2.88,2.88H75.72c-1.59,0-2.88-1.29-2.88-2.88v-86.75c0-3.81,3.09-6.89,6.89-6.89h147.89c3.81,0,6.89,3.09,6.89,6.89Z"/>
              <polygon class="st82" points="169.9 235.48 137.46 235.48 140.86 215.71 141.76 210.53 165.6 210.53 166.49 215.71 169.9 235.48"/>
              <polygon class="st4" points="166.49 215.71 140.86 215.71 141.76 210.53 165.6 210.53 166.49 215.71"/>
              <rect class="st71" x="126.71" y="231.23" width="53.94" height="4.25"/>
              <rect class="st100" x="103.37" y="165.41" width="100.62" height="3"/>
            </g>
            <g>
              <path class="st117" d="M51.75,228.73l-.43,2.91s2.44.75,3.41.27l.78-2.81"/>
              <path class="st117" d="M69.7,227.7l.23,3.9s2.19.77,4.01-.52l.07-3.21"/>
              <path class="st43" d="M69.9,231.23s-.94,1.55-.19,4.01h10.53s.37-1.83-1.62-2.22c-1.99-.4-4.69-1.93-4.69-1.93,0,0-.46.22-1.41.36-.89.13-2.24-.06-2.62-.2Z"/>
              <path class="st43" d="M51.32,231.64s-.25.5-.61,1.62c-.38,1.18-.03,1.97-.03,1.97h6.02s.51-1.5,0-2.15c-.23-.3-.79-.54-1.19-.78-.47-.28-.76-.53-.76-.53,0,0-1.94.25-3.43-.13Z"/>
              <path class="st49" d="M64.74,176.08v12.88l2.96-2.09c.32,3.66.85,8.18,1.41,14.39-1.39,3.41-.52,13.51-.24,17.47.29,4.02.83,10.88.83,10.88,2.72.48,4.31-.11,4.31-.11,0,0,.25-5.57.4-7.81.15-2.24.96-15.39,1.61-18.94.28-1.57.55-11.61.72-18.9.06-2.81-.5-8.34-.5-8.34l-11.5.57Z"/>
              <path class="st40" d="M60.47,174.64s-2.03,4.53-2.03,9.51c0,4.05-.95,14.68-.95,14.68,0,0-1.99,5.38-3.11,10.68s-2.91,20.06-2.91,20.06c0,0,2.74.7,4,.24,0,0,3.91-11.45,5.39-15.78,1.49-4.33,3.24-11.79,3.61-13.71.52-2.73,3.75-16.47,3.75-16.47l-.26-7.89-7.49-1.33Z"/>
              <path class="st117" d="M72.36,146.91c-.83-.7-.96-1.14-.96-1.14-.09-.36-.14-.93-.16-1.5-.04-.75-.04-1.51-.04-1.85v-.18l.53-.41-5.51-2.5c1.36,3.65.22,6.51.21,6.53h0s-.36.9-.92,1.26c-.83.53-1.53.69-2.26.98,0,0,6.52,4.69,11.35-.3,0,0-1.77-.5-2.23-.88Z"/>
              <path class="st64" d="M68.44,141.72c.09.14.52,2.54,2.87,3.48-.04-.75-.09-1.6-.09-1.94l-2.78-1.54Z"/>
              <path class="st21" d="M75.06,132.95s.89-.04,1.18.97c.51,1.78-1.43,3.53-1.43,3.53l.25-4.5Z"/>
              <path class="st117" d="M67.34,140.27c.83,2.65,4.32,4.52,5.79,4,1.86-.66,2.59-5.36,2.43-6.04-.49-2.01-.48-3.06-.43-3.94.09-1.53-1.37-3.71-4.8-3.33-3.41.38-6.44,3.29-2.98,9.31Z"/>
              <path class="st50" d="M62.91,133.62c-.2-.19-.37-.43-.48-.72-.81-2.15,1.47-4.04,3.21-3.11.45.24.76.57.99.92.84.19.57,1.07.57,1.07h-.12c.16.69.12,1.24.12,1.24l-1.47,1.39s-.49.04-1.1-.05l.11.25c-2.39.28-2.24-.92-1.82-.99Z"/>
              <path class="st90" d="M63.97,134.39s.09-2.69,2.99-3.29l-.94,1.56-2.05,1.72Z"/>
              <path class="st61" d="M63.59,138.46c.38,1.51,1.45,1.73,1.71,2.48.51,1.47.91,2.12,1.58,2.19.09-.96-.09-3.75-.09-3.75-.14-.45-.09-.9.02-1.19.22-.5,1.36-.18,1.36-.18.73.1.8-.77,1.02-1.28.44-1,.5-2.08.5-2.08-.26-1.96,1.49-4.09.25-4.28-2.94-.46-7.51,3.42-6.35,8.09Z"/>
              <path class="st117" d="M75.14,160.46s4.57,10.73,7.36,10.45c1.87-.19,3.54-2.04,4.95-3.65,1.42-1.63,2.56-3.03,2.56-3.03l-5.53,1.09-1.57-3.38-1.02-2.49-.79-1.93-5.96,2.95Z"/>
              <path class="st107" d="M82.49,159.99s-.98,1.62-4.84,2.92c-.58.19-1.22.38-1.93.55,0,0-.14-1.63-.46-2.78-.09-.36-.2-.74-.31-1.16-.29-1.07-.6-2.29-.89-3.4-.59-2.27,1.73-6.7,1.54-7.99,2.44,1.01,6.89,11.86,6.89,11.86Z"/>
              <path class="st6" d="M77.64,162.9c-.58.19-1.22.38-1.93.55,0,0-.14-1.63-.46-2.78-.09-.36-.2-.74-.31-1.16l2.49-.82s-.08,2.05.2,4.21Z"/>
              <path class="st93" d="M76.29,176c-7.92,2.5-13.36-.18-15.81-1.37,0-.09,2.47-5.87,2.45-9.16-.07-10.7-2.91-14.22-2.96-14.73-.07-.78,4.38-3.16,4.38-3.16,0,0,1.85,1.51,3.83,2.08,2.15.63,4.46.22,4.72-2.55,0,0,1.16.32,2.71,1,.81,2.31,1.82,7.33,1.85,10.57-.06.57-2.34,6.8-1.16,17.31Z"/>
              <rect class="st51" x="50.08" y="169.69" width="19.77" height="13.76" rx="1.66" ry="1.66" transform="translate(-58.88 32.88) rotate(-20.84)"/>
              <path class="st117" d="M65.15,181.3c-.08-.24-.79-.91-1-1.17-.21-.27-.87-.72-1.24-.93s-1.17-1.2-1.17-1.2h0c-.15-.76-.34-1.68-.59-2.74-.62-2.58-1.09-6.18-1.36-8.54.62-1.79,2.09-6.68,2.09-6.68l-5.25-2.11s-1.77,6.49-1.88,7.49c-.01.13-.03.26-.04.39-.22,1.67,1.24,6.41,3.02,10.07.69,1.42,1.35,2.73,1.84,3.69h0c.09.74-.01,2.29.38,2.86.35.51.72,1.09,1.07,1.23.33.14.59.1.88-.03.45,0,.72-.13.81-.34.52-.06.57-.11.8-.45.59-.01.85-.3.7-.64-.11-.25-.76-1.29-.76-1.29,0,0,.78.61,1.13.66.35.05.67-.04.59-.28Z"/>
              <path class="st94" d="M55.32,161.36c.89.62,5.2,1.79,6.38,1.47.21-.51,1.43-3.71,2.07-6.34.97-4,.58-8.89.58-8.89,0,0-5.34,1.73-7.04,7.64-.45,1.58-1.28,3.86-1.99,6.12Z"/>
              <path class="st41" d="M68.65,130.42s-1.46,2.33-.68,4.16c.59.25,1.28,1.63,1.28,3.05,4.02.28,6.45-2.17,6.3-3.85-.38-4.75-6.9-3.37-6.9-3.37Z"/>
              <path class="st117" d="M68.18,138.02s-.36-1.28-1.31-.85c-1.03.47-.3,2.01.04,2.58.34.57,1.02.42,1.12,0"/>
              <path class="st60" d="M81.02,166.9h11.95c.27,0,.5-.19.54-.46l3.04-17.67c.06-.34-.2-.64-.54-.64h-11.95c-.27,0-.5.19-.54.46l-3.04,17.67c-.06.34.2.64.54.64Z"/>
              <path class="st117" d="M96.15,151.43s.41.82.41,1.54-.55,2.09-1.09,2.36c-.54.27-1.63.24-1.88.16-.25-.08-.31-.31-.31-.31,0,0-.66-.04-.78-.11-.38-.21-.18-.55-.18-.55,0,0-.51,0-.7-.12-.19-.13-.27-.52.02-.79.21-.18.66-.32.66-.32,0,0,.02-.32.33-.58.15-.13.97-.35,1.72-.42.58-.06,1.51-.07,1.8-.87Z"/>
            </g>
            <g>
              <g>
                <rect class="st34" x="192.71" y="205.75" width="33.84" height="3.1"/>
                <rect class="st97" x="218.92" y="205.75" width="7.63" height="3.1"/>
                <line class="st15" x1="199.49" y1="208.85" x2="199.49" y2="235.24"/>
                <line class="st15" x1="224.79" y1="208.85" x2="224.79" y2="235.24"/>
                <line class="st15" x1="224.79" y1="229.12" x2="199.49" y2="229.12"/>
                <line class="st12" x1="220.9" y1="229.12" x2="195.6" y2="229.12"/>
                <line class="st12" x1="195.6" y1="208.85" x2="195.6" y2="235.24"/>
                <line class="st12" x1="220.9" y1="208.85" x2="220.9" y2="235.24"/>
              </g>
              <g>
                <path class="st117" d="M206.77,228.99l-.73,2.65s-2.44.75-3.41.27l.33-3.08"/>
                <path class="st43" d="M202.71,231.19s-.14.59-.38,1.24c-.39.45-.62.74-.76.97-.48.83.05,1.84.05,1.84h5.57s.51-1.5,0-2.15c-.23-.3-1.1-1.64-1.1-1.64,0,0-1.49.14-3.39-.25Z"/>
                <path class="st80" d="M183.01,229.12l-.44,2.28s1.39.6,3.46.53l.78-2.45-3.79-.36Z"/>
                <path class="st43" d="M176.43,235.24h9.85s1.07-1.75-.08-3.85c0,0-1.8.15-3.54-.46,0,0-1.2.77-2.66,1.53-1.53.79-3.83,1.48-3.56,2.78Z"/>
                <path class="st74" d="M212.66,205.75h-9.59c-2.22.47-5.78,2.61-8.76,2.81-.49,3.53-1.7,6.78-2.9,9.75-1.17,2.89-3.66,9.03-4.6,11.86-.62-.02-2.22-.15-3.94-.87,1.15-6.4,3.73-20.46,4.43-23.23,1-3.95,3.47-5.5,6.09-6.1,2.46-.56,3.18-.71,5.5-1.22l6.25-1.42,7.35-1.8s.15.95.29,2.25c.88,3.77.77,6.5-.12,7.97Z"/>
                <path class="st27" d="M221.92,205.75h-3s-.97,2.19-6.57,2.79c-.33,2.16-.7,3.53-1.8,7.62-.66,2.47-4.06,14.42-4.06,14.42-2.01.35-3.85-.4-3.85-.4,0,0,.95-18.45,1.24-21.2.11-1.06.67-4.86.88-5.81.58-2.62,2.58-3.69,2.8-3.82.01,0,1.15-.34,2.31-.6l6.25-1.42,6.87-2.25s.63,1.4.77,2.7c.83,3.56-.01,7.82-1.85,7.97Z"/>
                <path class="st80" d="M204.91,173.6l-6.6,6.55s-2.03-1.13-5.05-2.79c-3.02-1.65-5.44-2.48-5.44-2.48l-.79,1.59s6.95,6.62,10.62,7.89c.03.01.05.02.08.03.12.04.23.07.34.1h0c.18.04.38.07.6.09,3.16.29,9.39-6.36,9.39-6.36l-3.16-4.62Z"/>
                <path class="st55" d="M198.8,186.59h-9.9c-.23,0-.43-.15-.49-.37l-4-14.24c-.09-.32.15-.64.49-.64h9.9c.23,0,.43.15.49.37l4,14.24c.09.32-.15.64-.49.64Z"/>
                <path class="st44" d="M211.58,176.93l-3.27,2.76-1.7,1.43-1.15.97c-3.07-2.54-4.78-4.67-4.78-4.67,4.43-4.77,6.75-6.55,6.78-6.57.74-.58,4.11,6.08,4.11,6.08Z"/>
                <path class="st3" d="M208.32,179.69l-1.7,1.43c.41-.96,1.03-4.85,1.03-4.85l.51.5.16,2.93Z"/>
                <path class="st89" d="M223.86,171.69c-.07,1.73-1.26,15.22-1.12,19.1.08,2.29.9,5.55.9,5.92,0,.25-.33.52-.46.59-.47.27-1.41.47-2.54.61h0c-2.23.27-5.23.32-7.04.32-2.43,0-6.09-.39-6.55-1-.42-.56-.04-1.38.17-2.51,1.56-8.34,0-22.11.25-23.86.97-.65,5.46-2.08,5.53-2.1.65-.04.78-.36,1.54-.34.66.02,2.12.11,3.22.25,0,0,4.01.98,6.11,3.02Z"/>
                <g>
                  <path class="st38" d="M207.69,159.64s.31,3.71,1.54,3.96c1.23.25.93-1.33.93-1.33l-.17-1.76-2.29-.87Z"/>
                  <path class="st117" d="M213.82,171.68c-2.42-.1-1.58-2.23-.81-2.94.03-.04.05-.13.07-.24.07-.57-.01-1.88-.06-2.58-.01-.21-.02-.36-.02-.43l1.43-1,2.97-2.11s.13,3.25.37,6.28c.37,1-1.47,3.12-3.94,3.02Z"/>
                  <path class="st64" d="M215.69,165.41s-.78,2.51-2.62,3.09c.07-.57-.01-1.88-.06-2.58l2.68-.51Z"/>
                  <path class="st117" d="M208.8,159.44s-.39,7.96,2.48,8.49c0,0,2.29.31,4.19-2.25.55-.74,1.24-.9,1.47-1.79.37-1.45.89-4.11.22-5.72-.94-2.29-8.28-4.3-8.37,1.27Z"/>
                  <path class="st31" d="M217.19,157.43c.76-2.96-3.42-5.75-8.81-1.62-.56-.39-1.59-.75-2.09-.4-.6.41-.71,1.93-.35,2.98.78,2.23,3.67,2.73,5.9,2.16,1.55-.4,2.37-1.28,2.91-1.22-.49,2.17.49,4.01,1.26,3.88.09.18.58-.6.61-.34.06.56.57,1.51,1.15.42.87-1.64,1.65-5.78-.58-5.85Z"/>
                  <path class="st117" d="M216.5,164.88c1.08.26,2.26-3.08.85-3.24-1.07-.12-1.48,1.57-1.48,1.57,0,0-.26,1.46.62,1.67Z"/>
                </g>
                <path class="st117" d="M229.32,186.03s0-.04-.01-.06c-.19-1.25-.45-2.42-.53-2.74-.01-.05-.02-.08-.02-.08-.61-3.03-1.85-5.94-1.85-5.94l-5,2.55s1,4.16,2.05,6.93c0,0-4.04,3.36-6.61,5.33-1.26.97-2.22,1.69-2.86,2.17,0,0-2.28.9-3.52,1.56-.48.26-2.65,3.77-2.59,3.93.06.17.33.31.68.15.13-.06.36-.28.57-.57,0,0-.23.39-.19.52.03.12.23.2.51.09.25-.1.46-.36.68-.72-.03.09-.05.16-.06.18-.03.11.2.33.66.12.33-.15.86-1.23,1-1.4.05-.07.24-.13.48-.18l-.58,1.88s.05.21.58.08c.47-.12,1-1.41,1.26-2.11,1.72-.15,2.26-1.97,2.26-1.97,1.91-1.14,4.97-2.17,8.66-3.77,1.52-.65,3.03-1.73,3.71-2.14.03-.02.48-.29.52-.31.2-.1.31-.39.36-.8h0c.08-.69-.01-1.71-.16-2.69Z"/>
                <path class="st66" d="M219.83,176.57c.53,2.22,2.44,6.74,2.44,6.74.85.03,2.54-.3,3.82-.82,1.86-.75,2.58-1.68,2.58-1.68,0,0-1.18-3.09-2.11-5.37-.64-1.56-1.48-3.05-1.89-3.42-1.74-1.57-3.06-1.97-4.2-2.44l-.65,6.98Z"/>
                <path class="st34" d="M218.03,200.8h-8.4v-.82h8.4c.23,0,.41.18.41.41h0c0,.23-.18.41-.41.41Z"/>
                <path class="st34" d="M213.52,200.02l-4.29-15.44c-.13-.46-.54-.77-1.02-.77h-20.33c-.15,0-.27.06-.37.15l-.49.39.37.25,4.27,15.38c.07.24.29.41.54.41h21.03c.2,0,.34-.19.29-.38Z"/>
                <path class="st57" d="M212.73,200.8h-21.03c-.25,0-.47-.17-.54-.41l-4.3-15.49c-.1-.34.16-.68.52-.68h20.33c.47,0,.89.32,1.02.77l4.29,15.44c.05.19-.09.38-.29.38Z"/>
                <path class="st80" d="M186.92,174.57s-.02,0-.04-.01c.14-.15-.03-.63-.6-.85-.67-.26-.84-.31-.84-.31l-.74-.36-.22-.77s-.69,1.2-.67,1.52c.02.33.65,1.86,1.22,2.16.57.3,1.42.62,1.7.62.23,0,.3-.24.09-.49.22.05.41.1.49.1.25,0,.2-.47-.24-.76.15.03.27.06.33.06.3,0,.18-.64-.49-.9Z"/>
              </g>
            </g>
            <g>
              <path class="st95" d="M258.94,232.54l-.69-2.88c1.19.2,3.12-.37,3.89-.48l-.08,3.36s-1.46.9-3.12,0Z"/>
              <g>
                <path class="st91" d="M241.79,175.05s0-.02,0-.02c0,0,0,.01,0,.02Z"/>
                <path class="st95" d="M243.77,232.54l-.13-2.19c1.19.2,2.55.08,3.33-.02l-.08,2.21s-1.46.9-3.12,0Z"/>
                <path class="st53" d="M262.42,229.74c-.81.47-3.18.83-4.33.46,0,0-5.09-23.09-5.74-25.93-.85-3.71-2.34-8.19-3.22-12.23,0,2.1-.17,4.82-.38,7.15h0c-.23,2.69-.49,4.83-.49,4.83.18,1.7.53,9.91-.15,15.13-.44,3.36-.47,11.19-.47,11.19-.91.21-2.69.38-4.47.05,0,0-2.79-25.8-2.92-27.8-.51-8.44-.14-27.15-.1-27.52,0,.13.97.98,3.95.81,4.11-.23,11.85-.81,11.85-.81,2.27,1.28,2.7,7.85,2.61,11.03-.09,1.5.68,11.7,1.17,17.55,1.5,3.52,1.51,9.52,1.81,13.93.46,6.87.86,12.18.86,12.18Z"/>
              </g>
              <path class="st95" d="M237.81,156.53l-1.55,7.99c-1.92-1.56-4.9-3.88-6.91-5l-1.57.92s1.7,2.34,4.09,4.94c3.12,3.41,4.81,4.81,4.81,4.81h0c.43.41,1.07.54,2.01.04,3.05-1.62,4.75-11.38,4.75-11.38l-5.63-2.32Z"/>
              <path class="st78" d="M236.01,161.26s1.3.89,3.12,1.46c.5.16,1.03.29,1.59.38.28.05.57.08.86.09.39.02.81.02,1.23-.02.13-.01.27-.03.4-.05l1.05-4.3.78-3.18-5.37-6.21s-1.41,2.37-3.67,11.82Z"/>
              <g>
                <path class="st26" d="M241.75,132.31h1s.07.3.1.65l1.14.67v1.84s.14,1.66-1.1,1.27c-.74-.23-.87-1.66-.86-2.79-.73-.48-.28-1.64-.28-1.64Z"/>
                <path class="st95" d="M251.36,145.9c-.24-.56-.46-7.44-.46-7.44l-3.07,2.58-1.45,1.22c-.16.72-.41,1.65-.63,2.4-.23.77-.09,1.44-.09,1.44,0,0,.62,1.15,2.07,1.04,2.82-.22,3.61-1.25,3.61-1.25Z"/>
                <path class="st77" d="M249.73,141.04s-1.23,2.72-3.97,3.62c.22-.75.47-1.68.63-2.4l1.45-1.22h1.9Z"/>
                <path class="st95" d="M242.64,135.09s-.62,6.46,1.49,7.64c1.16.65,3.61.4,5.19-1.08.7-.65,1.11-1.54,1.44-2.44.53-1.45,1.34-4.15.83-5.88-.73-2.46-8.28-3.98-8.95,1.76Z"/>
                <path class="st20" d="M243.43,128.99c1.22-.25,1.36-1.22,2.71-1.08s1.56.86,2.19,1.11c.64.25,1.38.03,2.21.52.53.32.71.88.78,1.24,2.51.38,2.28,2.11,1.7,4.05-.44,1.45.23,1.9-.31,2.95-.23.44-.83,1.13-.95,1.73-.2,1-.29,1.36-.75,1.79-.18-1.04-.54-1.85-.86-3.58-.02-.13-.05-.24-.08-.36-.93-.09-1.53.08-1.74-.57-.17-.53-.1-1.26-.17-1.94-2.16.15-2.75-.73-3.02-.95-2.33.52-3.24.29-3.79-.52-.59-.87-.05-1.42-.06-1.69,0,0,0-.01,0-.02-.17-1.19.95-2.44,2.17-2.68Z"/>
              </g>
              <path class="st16" d="M240.28,176.25c.92,1.16,4.45,2.08,7.09,2.08,2.98,0,8.62-1.11,9.45-2.24.09-.12.64-.66-.24-3.93-.21-.79-.55-2.76-.59-3.46-.25-3.91.88-9.37,1.28-10.56,1.01-2.99,1.98-5.4,1.57-7.79-.46-.79-.71-1.36-1.2-1.9-1.22-1.35-5.47-3.33-6.43-3.49,0,0-.97,1.81-3.26,1.99-2.8.22-2.27-1.99-2.27-1.99-1.67.85-3.76,1.9-5.22,3.38-1.2,1.21-2.1,3.95-1.33,9.07.24,1.59.66,7.59.84,12.41.12,3.26-.08,5.98.29,6.44Z"/>
              <path class="st95" d="M253.93,155.63s1.4,3.53,2.89,6.38c.51.97,1.5,4.02,1.91,4.29,1.32.87,3.59-1.06,4.48-1.92,0-.07-.32-2.1-1.03-4.48-1.09-3.63-2.73-8.13-2.73-8.13l-5.52,3.86Z"/>
              <path class="st37" d="M253.09,148.99c.72-.94,3.15-2.27,4.75-.3.3.37,1.99,3.23,2.83,5.66.87,2.52,1.5,4.52,1.5,4.52,0,0-1.63.86-3.34,1.45-1.43.49-3.08.86-4.34.55,0,0-1.68-4.45-2.09-6.89,0,0-.61-3.3.69-5Z"/>
              <path class="st95" d="M263.22,164.37s-7.91-3.47-9.05-4.13c-1.71-1-2.78-1.68-3.39-2.09h0s-1.35-2.56-1.68-3.2c-.33-.64-1.61-.78-2.5-1.32-.89-.53-1.51-1.39-1.93-1.25-.42.14.15,1.27.58,1.63.43.36,1.39,1.1,1.39,1.1,0,0-.45.66-.45.91s-.39.53-.41,1-.25.68-.16,1.14c.09.46.57,1.33.75,1.57.09.12.35.06.44-.09.09-.15.14-.41.16-.49.05.01.81,1.08,2.14,1.26.08.01.16.01.24,0,2.8,3.41,5.39,5.96,10.11,8.52,3.39,1.84,4.34-2.68,3.78-4.57Z"/>
              <path class="st43" d="M241.67,232.37s1.51-1.22,2.02-1.22c.39,0,.58.24.95.38.25.09.47.11.53.11,1.3.02,1.77-.36,1.77-.36,1.22,2.22.49,4.01.49,4.01h-9.88c-.28-2.35,2.89-2.52,4.12-2.92Z"/>
              <path class="st43" d="M257.71,231.86s.38-.43,1.13-.7c.64-.23,1.42-.39,2.74.12.35.01.52-.03.52-.03.1.33.29.6.51.83,1.89,1.98.77,3.21.77,3.21h-5.42c-2.57-.37-1.48-3.03-.25-3.43Z"/>
              <path class="st95" d="M249.46,139.9c1.47.8,2.47-2.95,1.02-3.32-1.1-.28-1.35,1.27-1.35,1.27,0,0-.5,1.59.34,2.04Z"/>
              <path class="st7" d="M249.13,192.03c0,.8-.02,1.7-.06,2.62l-2.4-8.22c-.62-.99-1.18-1.61-1.25-1.69l2.23.87c.34,1.82,1.49,6.42,1.49,6.42Z"/>
              <path class="st29" d="M243.4,165.92h-10.98c-.58,0-1.11-.31-1.39-.82l-6.87-12.4c-.23-.41.07-.91.54-.91h10.98c.58,0,1.11.31,1.39.82l6.87,12.4c.23.41-.07.91-.54.91Z"/>
              <path class="st95" d="M229.95,159.86c.49-.07.32-.54-.07-.76-.16-.09-.41-.17-.66-.25,0,0,0,0,0,0,1.01.19.85-.48.37-.74-.48-.27-1.74-.5-1.74-.5l-1.41-.79-.63-1.13s-.32,1.46.03,2.05c-.02.27-.04.71.02.81.02.05.08.1.14.15.04.39.12.8.28.91.04.03.09.06.14.08.03.25.1.46.25.56.48.33,1.17.55,1.17.55,0,0,.66.09,1.5.24.67.12.72-.2.51-.45.58-.02.46-.48.1-.73Z"/>
            </g>
            <g>
              <rect class="st87" x="137.95" y="178.39" width="43.13" height="21.52" rx="6.65" ry="6.65"/>
              <g>
                <g>
                  <circle class="st34" cx="144.95" cy="185.06" r="3.73"/>
                  <circle class="st9" cx="144.95" cy="183.86" r="1.2"/>
                  <path class="st68" d="M147.43,187.83c-.66.59-1.53.95-2.49.95s-1.83-.36-2.49-.95c.04-1.34,1.14-2.41,2.49-2.41.69,0,1.31.28,1.76.73s.71,1.03.73,1.69Z"/>
                </g>
                <g>
                  <path class="st34" d="M164.24,183.86h-13.65c-.24,0-.43-.19-.43-.43h0c0-.24.19-.43.43-.43h13.65c.24,0,.43.19.43.43h0c0,.24-.19.43-.43.43Z"/>
                  <path class="st34" d="M164.24,185.49h-13.65c-.24,0-.43-.19-.43-.43h0c0-.24.19-.43.43-.43h13.65c.24,0,.43.19.43.43h0c0,.24-.19.43-.43.43Z"/>
                  <path class="st34" d="M156.77,187.11h-6.18c-.24,0-.43-.19-.43-.43h0c0-.24.19-.43.43-.43h6.18c.24,0,.43.19.43.43h0c0,.24-.19.43-.43.43Z"/>
                  <path class="st34" d="M158.97,187.11h-.79c-.24,0-.43-.19-.43-.43h0c0-.24.19-.43.43-.43h.79c.24,0,.43.19.43.43h0c0,.24-.19.43-.43.43Z"/>
                </g>
              </g>
              <g>
                <g>
                  <circle class="st34" cx="174.08" cy="193.24" r="3.73" transform="translate(-28.77 30.46) rotate(-9.24)"/>
                  <path class="st114" d="M172.89,192.04c0,.66.54,1.2,1.2,1.2s1.2-.54,1.2-1.2-.54-1.2-1.2-1.2-1.2.54-1.2,1.2Z"/>
                  <path class="st65" d="M171.6,196.01c.66.59,1.53.95,2.49.95s1.83-.36,2.49-.95c-.04-1.34-1.14-2.41-2.49-2.41-.69,0-1.31.28-1.76.73-.43.43-.71,1.03-.73,1.69Z"/>
                </g>
                <g>
                  <path class="st34" d="M154.79,192.04h13.65c.24,0,.43-.19.43-.43h0c0-.24-.19-.43-.43-.43h-13.65c-.24,0-.43.19-.43.43h0c0,.24.19.43.43.43Z"/>
                  <path class="st34" d="M151.85,192.04h1.4c.24,0,.43-.19.43-.43h0c0-.24-.19-.43-.43-.43h-1.4c-.24,0-.43.19-.43.43h0c0,.24.19.43.43.43Z"/>
                  <path class="st34" d="M154.79,193.66h13.65c.24,0,.43-.19.43-.43h0c0-.24-.19-.43-.43-.43h-13.65c-.24,0-.43.19-.43.43h0c0,.24.19.43.43.43Z"/>
                  <path class="st34" d="M162.26,195.29h6.18c.24,0,.43-.19.43-.43h0c0-.24-.19-.43-.43-.43h-6.18c-.24,0-.43.19-.43.43h0c0,.24.19.43.43.43Z"/>
                </g>
              </g>
            </g>
            <g>
              <path class="st34" d="M86.04,121.45h-36.36c-2.74,0-4.96-2.22-4.96-4.96h0c0-2.74,2.22-4.96,4.96-4.96h36.36c2.74,0,4.96,2.22,4.96,4.96h0c0,2.74-2.22,4.96-4.96,4.96Z"/>
              <path class="st46" d="M52.15,114.43l.51,1.03c.04.08.11.13.2.14l1.14.17c.22.03.3.3.15.45l-.83.8c-.06.06-.09.15-.08.23l.19,1.14c.04.22-.19.38-.38.28l-1.02-.54c-.08-.04-.17-.04-.25,0l-1.02.54c-.19.1-.42-.06-.38-.28l.19-1.14c.01-.09-.01-.17-.08-.23l-.83-.8c-.16-.15-.07-.42.15-.45l1.14-.17c.09-.01.16-.07.2-.14l.51-1.03c.1-.2.38-.2.47,0Z"/>
              <path class="st112" d="M60.12,114.43l.51,1.03c.04.08.11.13.2.14l1.14.17c.22.03.3.3.15.45l-.83.8c-.06.06-.09.15-.08.23l.19,1.14c.04.22-.19.38-.38.28l-1.02-.54c-.08-.04-.17-.04-.25,0l-1.02.54c-.19.1-.42-.06-.38-.28l.19-1.14c.01-.09-.01-.17-.08-.23l-.83-.8c-.16-.15-.07-.42.15-.45l1.14-.17c.09-.01.16-.07.2-.14l.51-1.03c.1-.2.38-.2.47,0Z"/>
              <path class="st108" d="M68.1,114.43l.51,1.03c.04.08.11.13.2.14l1.14.17c.22.03.3.3.15.45l-.83.8c-.06.06-.09.15-.08.23l.19,1.14c.04.22-.19.38-.38.28l-1.02-.54c-.08-.04-.17-.04-.25,0l-1.02.54c-.19.1-.42-.06-.38-.28l.19-1.14c.01-.09-.01-.17-.08-.23l-.83-.8c-.16-.15-.07-.42.15-.45l1.14-.17c.09-.01.16-.07.2-.14l.51-1.03c.1-.2.38-.2.47,0Z"/>
              <path class="st54" d="M76.07,114.43l.51,1.03c.04.08.11.13.2.14l1.14.17c.22.03.3.3.15.45l-.83.8c-.06.06-.09.15-.08.23l.19,1.14c.04.22-.19.38-.38.28l-1.02-.54c-.08-.04-.17-.04-.25,0l-1.02.54c-.19.1-.42-.06-.38-.28l.19-1.14c.01-.09-.01-.17-.08-.23l-.83-.8c-.16-.15-.07-.42.15-.45l1.14-.17c.09-.01.16-.07.2-.14l.51-1.03c.1-.2.38-.2.47,0Z"/>
              <path class="st109" d="M84.05,114.43l.51,1.03c.04.08.11.13.2.14l1.14.17c.22.03.3.3.15.45l-.83.8c-.06.06-.09.15-.08.23l.19,1.14c.04.22-.19.38-.38.28l-1.02-.54c-.08-.04-.17-.04-.25,0l-1.02.54c-.19.1-.42-.06-.38-.28l.19-1.14c.01-.09-.01-.17-.08-.23l-.83-.8c-.16-.15-.07-.42.15-.45l1.14-.17c.09-.01.16-.07.2-.14l.51-1.03c.1-.2.38-.2.47,0Z"/>
            </g>
            <g>
              <rect class="st106" x="98.52" y="74.93" width="26.23" height="31.23" rx="6.92" ry="6.92"/>
              <circle class="st34" cx="111.72" cy="90.28" r="9.85"/>
              <g class="st113">
                <g>
                  <path class="st59" d="M118.06,94.18c-6.28,1.97-11.14.65-12.83.04.37-1.5.79-2.84.82-3.72.07-1.99-.67-2.62-.3-5.04.31-2.04,1.29-2.95,1.59-3.19.02-.01.04-.03.06-.04.02-.01.03-.02.03-.02.08-.06.15-.11.2-.15.02-.01.04-.03.06-.04.01-.01.02-.01.03-.02,0,0,0,0,0,0,.97-.65,2.17-1.09,3.63-1.09,1.28,0,1.87.8,1.87.8.75-.21,1.45-.14,2.02.17h0s.33.15.34.16c.02.01.04.03.06.04.05.04.12.08.2.15.23.17.77.61,1.3,1.34,0,0,0,0,.01.02.09.14.67,1.12.59,2.45-.09,1.44-.71,3.12-.78,4.23-.05.7-.27,2.22,1.08,3.93Z"/>
                  <path class="st88" d="M118.88,97.34l-.67,5.11h-13.13l-.67-5.11c1.67-.92,3.64-1.2,3.92-1.26.02,0,.03,0,.04,0,1.33-.11,2.58-.27,3.26-.49.68.22,1.93.38,3.27.49.14.04,2.18.28,3.96,1.27Z"/>
                  <path class="st23" d="M114.91,96.06c-.3-.06-.63-.21-.89-.42-.26-.21-.45-.49-.48-.79l-.39-3.39h-3.06l-.39,3.39c-.03.3-.23.57-.48.79-.26.21-.59.37-.89.43,0,0,1.23,3.45,3.31,3.45,1.83,0,3.27-3.46,3.27-3.46Z"/>
                  <path class="st52" d="M107.46,88.81s-.29-.27-.66,0c-.37.27.03,1.8.46,2.03.43.23.62-.07.62-.07l-.43-1.96Z"/>
                  <path class="st52" d="M115.69,88.81s.29-.27.66,0c.37.27-.03,1.8-.46,2.03-.43.23-.62-.07-.62-.07l.43-1.96Z"/>
                  <path class="st23" d="M111.62,82.3s-4.4.31-4.35,4.81c0,0,.15,3.34.74,4.35.58,1.01,1.7,2.67,3.62,2.73,1.92-.06,3.04-1.72,3.62-2.73.58-1.01.74-4.35.74-4.35.05-4.51-4.35-4.81-4.35-4.81Z"/>
                  <path class="st116" d="M113.53,93.52s-.18.19-.52.38c-.17.09-.38.2-.61.28-.24.08-.5.13-.77.13-.13,0-.26-.01-.4-.04-.13-.02-.25-.06-.37-.09-.24-.07-.44-.18-.61-.28-.34-.2-.52-.38-.52-.38,0,0,.23.13.58.27.17.07.39.14.61.2.11.03.23.05.35.07.11.02.24.02.37.03.49,0,.98-.15,1.33-.3.35-.14.58-.27.58-.27Z"/>
                  <path class="st98" d="M116.53,84.78s-1.06-1.84-1.2-1.89c-.14-.05-.48-.16-.85-.32-.37-.16-1.16-.46-1.32-.46s-.73.05-.8.18c0,.01,0,.03,0,.05-.36-.22-.72-.42-.81-.4-.18.05-2.16.64-2.16.64,0,0-.94.84-1.26,1.04-.32.21-.86,1.55-.86,1.55l-.33,2.65s1.67-.04,3.42-.73c1.89-.74,2.2-1.47,2.46-2.26.11.12,1.08,2.65,3.68,2.99,1.07.14.03-3.05.03-3.05Z"/>
                </g>
              </g>
              <path class="st34" d="M137.88,71.83h-19.32c-1.93,0-3.62,1.49-3.68,3.42-.06,2,1.54,3.64,3.53,3.64h1.61v2.31c0,.27.33.41.52.22l2.53-2.53h14.65c1.93,0,3.62-1.49,3.68-3.42.06-2-1.54-3.64-3.53-3.64Z"/>
              <g>
                <path class="st99" d="M120.05,73.53l.4.8c.04.08.11.13.2.14l.88.13c.21.03.3.29.14.44l-.64.62c-.06.06-.09.15-.07.23l.15.88c.04.21-.19.37-.38.27l-.79-.42c-.08-.04-.17-.04-.24,0l-.79.42c-.19.1-.41-.06-.38-.27l.15-.88c.01-.08-.01-.17-.07-.23l-.64-.62c-.15-.15-.07-.41.14-.44l.88-.13c.08-.01.16-.07.2-.14l.4-.8c.1-.19.37-.19.47,0Z"/>
                <path class="st92" d="M125.61,73.53l.4.8c.04.08.11.13.2.14l.88.13c.21.03.3.29.14.44l-.64.62c-.06.06-.09.15-.07.23l.15.88c.04.21-.19.37-.38.27l-.79-.42c-.08-.04-.17-.04-.24,0l-.79.42c-.19.1-.41-.06-.38-.27l.15-.88c.01-.08-.01-.17-.07-.23l-.64-.62c-.15-.15-.07-.41.14-.44l.88-.13c.08-.01.16-.07.2-.14l.4-.8c.1-.19.37-.19.47,0Z"/>
                <path class="st32" d="M131.16,73.53l.4.8c.04.08.11.13.2.14l.88.13c.21.03.3.29.14.44l-.64.62c-.06.06-.09.15-.07.23l.15.88c.04.21-.19.37-.38.27l-.79-.42c-.08-.04-.17-.04-.24,0l-.79.42c-.19.1-.41-.06-.38-.27l.15-.88c.01-.08-.01-.17-.07-.23l-.64-.62c-.15-.15-.07-.41.14-.44l.88-.13c.08-.01.16-.07.2-.14l.4-.8c.1-.19.37-.19.47,0Z"/>
                <path class="st96" d="M136.71,73.53l.4.8c.04.08.11.13.2.14l.88.13c.21.03.3.29.14.44l-.64.62c-.06.06-.09.15-.07.23l.15.88c.04.21-.19.37-.38.27l-.79-.42c-.08-.04-.17-.04-.24,0l-.79.42c-.19.1-.41-.06-.38-.27l.15-.88c.01-.08-.01-.17-.07-.23l-.64-.62c-.15-.15-.07-.41.14-.44l.88-.13c.08-.01.16-.07.2-.14l.4-.8c.1-.19.37-.19.47,0Z"/>
              </g>
            </g>
            <g>
              <rect class="st86" x="95.28" y="204.18" width="6.85" height="31.26"/>
              <rect class="st30" x="106.29" y="209.19" width="6.85" height="26.24"/>
              <rect class="st35" x="84.38" y="213.47" width="6.85" height="21.96"/>
              <rect class="st17" x="117.29" y="200.02" width="6.85" height="35.41"/>
              <path class="st72" d="M87.84,210.84c.94,0,1.7-.76,1.7-1.7,0-.27-.07-.52-.18-.74l8.44-8.14c.26.17.57.27.91.27.48,0,.92-.2,1.23-.53l8.1,4.84c-.01.08-.03.17-.03.25,0,.94.76,1.7,1.7,1.7s1.7-.76,1.7-1.7c0-.3-.08-.58-.22-.82l8.87-10.57c.2.08.42.13.65.13.94,0,1.7-.76,1.7-1.7s-.76-1.7-1.7-1.7-1.7.76-1.7,1.7c0,.34.1.65.27.91l-8.83,10.53c-.23-.11-.47-.18-.74-.18-.48,0-.92.2-1.23.53l-8.1-4.84c.01-.08.03-.17.03-.25,0-.94-.76-1.7-1.7-1.7s-1.7.76-1.7,1.7c0,.23.05.45.13.65l-8.48,8.18c-.24-.14-.52-.22-.82-.22-.94,0-1.7.76-1.7,1.7s.76,1.7,1.7,1.7Z"/>
            </g>
            <g>
              <path class="st110" d="M232.94,130.09h-11.1c-1.25,0-2.26,1.01-2.26,2.26v2.78c0,1.25,1.01,2.26,2.26,2.26h8.02l2.01,2.01c.26.26.71.08.71-.3v-1.71h.36c1.25,0,2.26-1.01,2.26-2.26v-2.78c0-1.25-1.01-2.26-2.26-2.26Z"/>
              <g>
                <path class="st34" d="M224.12,133.72c0,.37-.3.67-.67.67s-.67-.3-.67-.67.3-.67.67-.67.67.3.67.67Z"/>
                <path class="st34" d="M226.75,133.72c0,.37-.3.67-.67.67s-.67-.3-.67-.67.3-.67.67-.67.67.3.67.67Z"/>
                <path class="st34" d="M229.37,133.72c0,.37-.3.67-.67.67s-.67-.3-.67-.67.3-.67.67-.67.67.3.67.67Z"/>
                <path class="st34" d="M232,133.72c0,.37-.3.67-.67.67s-.67-.3-.67-.67.3-.67.67-.67.67.3.67.67Z"/>
              </g>
            </g>
            <g>
              <path class="st42" d="M214.02,138.49h13.1c1.25,0,2.26,1.01,2.26,2.26v2.78c0,1.25-1.01,2.26-2.26,2.26h-10.02l-2.01,2.01c-.26.26-.71.08-.71-.3v-1.71h-.36c-1.25,0-2.26-1.01-2.26-2.26v-2.78c0-1.25,1.01-2.26,2.26-2.26Z"/>
              <g>
                <path class="st34" d="M224.83,142.12c0,.37.3.67.67.67s.67-.3.67-.67-.3-.67-.67-.67-.67.3-.67.67Z"/>
                <path class="st34" d="M222.21,142.12c0,.37.3.67.67.67s.67-.3.67-.67-.3-.67-.67-.67-.67.3-.67.67Z"/>
                <path class="st34" d="M219.58,142.12c0,.37.3.67.67.67s.67-.3.67-.67-.3-.67-.67-.67-.67.3-.67.67Z"/>
                <path class="st34" d="M216.96,142.12c0,.37.3.67.67.67s.67-.3.67-.67-.3-.67-.67-.67-.67.3-.67.67Z"/>
                <path class="st34" d="M214.33,142.12c0,.37.3.67.67.67s.67-.3.67-.67-.3-.67-.67-.67-.67.3-.67.67Z"/>
              </g>
            </g>
            <g>
              <g>
                <rect class="st70" x="206.13" y="117.03" width="4.28" height="10.43" rx="2.14" ry="2.14"/>
                <path class="st22" d="M222.26,123.28c-.24,1.41-1.52,1.71-1.52,1.71,0,0,.84.08.64.9-.21.82-.92,1.57-1.57,1.57h-5.23c-.86,0-1.72-.17-2.5-.52-.05-.02-.1-.04-.15-.07-.32-.14-.53-.46-.53-.81v-7.58c0-.35.09-.7.25-1.01.36-.68.98-1.95.98-2.63,0-.96-1.46-4.04-.45-4.68.99-.63,2.29.22,3.14,1.76.67,1.21.19,3.85.67,4.33h5.06s1.37-.05,1.28,1.22c-.08,1.09-.67,1.71-.67,1.71,0,0,.9-.06.87,1.11-.03,1.11-.9,1.89-.9,1.89,0,0,.8.12.63,1.11Z"/>
              </g>
              <g>
                <path class="st103" d="M92.32,181.49h0c.83,0,1.5.67,1.5,1.5v4.31c0,.83-.67,1.5-1.5,1.5h0c-.83,0-1.5-.67-1.5-1.5v-4.31c0-.83.67-1.5,1.5-1.5Z"/>
                <path class="st62" d="M102.12,185.87c-.17.99-1.07,1.2-1.07,1.2,0,0,.59.06.45.63-.15.57-.65,1.1-1.1,1.1h-3.66c-.6,0-1.2-.12-1.76-.37-.04-.02-.07-.03-.1-.05-.23-.1-.37-.32-.37-.57v-5.31c0-.25.06-.49.18-.71.25-.48.69-1.37.69-1.84,0-.67-1.02-2.83-.31-3.28.7-.44,1.6.16,2.2,1.23.47.85.13,2.69.47,3.03h3.55s.96-.03.9.85c-.06.76-.47,1.2-.47,1.2,0,0,.63-.04.61.77-.02.78-.63,1.33-.63,1.33,0,0,.56.09.44.77Z"/>
              </g>
            </g>
            <g>
              <g>
                <rect class="st34" x="130.08" y="85.95" width="3.48" height="3.48" rx=".66" ry=".66"/>
                <rect class="st34" x="134.74" y="85.95" width="3.48" height="3.48" rx=".66" ry=".66"/>
                <rect class="st34" x="139.4" y="85.95" width="3.48" height="3.48" rx=".66" ry=".66"/>
              </g>
              <g>
                <rect class="st34" x="37.69" y="189.87" width="3.48" height="3.48" rx=".66" ry=".66"/>
                <rect class="st34" x="42.35" y="189.87" width="3.48" height="3.48" rx=".66" ry=".66"/>
                <rect class="st34" x="47.01" y="189.87" width="3.48" height="3.48" rx=".66" ry=".66"/>
              </g>
              <g>
                <rect class="st34" x="170.17" y="218.68" width="2.24" height="2.24" rx=".43" ry=".43"/>
                <rect class="st34" x="173.17" y="218.68" width="2.24" height="2.24" rx=".43" ry=".43"/>
                <rect class="st34" x="176.17" y="218.68" width="2.24" height="2.24" rx=".43" ry=".43"/>
              </g>
            </g>
            <g>
              <g>
                <path class="st11" d="M162.48,119.25h0c0,2.7,2.19,4.89,4.89,4.89h30.47c2.7,0,4.89-2.19,4.89-4.89h0c0-2.7-2.19-4.89-4.89-4.89h-30.47c-2.7,0-4.89,2.19-4.89,4.89Z"/>
                <path class="st67" d="M197,117.58h-20.5c-.29,0-.53-.24-.53-.53h0c0-.29.24-.53.53-.53h20.5c.29,0,.53.24.53.53h0c0,.29-.24.53-.53.53Z"/>
                <path class="st58" d="M189.27,119.79h-12.77c-.29,0-.53-.24-.53-.53h0c0-.29.24-.53.53-.53h12.77c.29,0,.53.24.53.53h0c0,.29-.24.53-.53.53Z"/>
                <path class="st48" d="M197,119.79h-5.47c-.29,0-.53-.24-.53-.53h0c0-.29.24-.53.53-.53h5.47c.29,0,.53.24.53.53h0c0,.29-.24.53-.53.53Z"/>
                <path class="st104" d="M186.22,122.01h-9.72c-.29,0-.53-.24-.53-.53h0c0-.29.24-.53.53-.53h9.72c.29,0,.53.24.53.53h0c0,.29-.24.53-.53.53Z"/>
              </g>
              <g>
                <path class="st25" d="M169.87,118.91h0c-1.45,0-2.62,1.17-2.62,2.62v.26c0,.12.1.22.22.22h4.8c.12,0,.22-.1.22-.22v-.26c0-1.45-1.17-2.62-2.62-2.62Z"/>
                <path class="st45" d="M170.98,117.34c0,.62-.5,1.4-1.12,1.4s-1.12-.78-1.12-1.4.5-1.12,1.12-1.12,1.12.5,1.12,1.12Z"/>
              </g>
            </g>
            <g>
              <g>
                <path class="st34" d="M20.15,140.66h0c0,2.61,2.12,4.73,4.73,4.73h29.49c2.61,0,4.73-2.12,4.73-4.73h0c0-2.61-2.12-4.73-4.73-4.73h-29.49c-2.61,0-4.73,2.12-4.73,4.73Z"/>
                <path class="st18" d="M54.03,138.99h-20.5c-.29,0-.53-.24-.53-.53h0c0-.29.24-.53.53-.53h20.5c.29,0,.53.24.53.53h0c0,.29-.24.53-.53.53Z"/>
                <path class="st83" d="M46.29,141.2h-12.77c-.29,0-.53-.24-.53-.53h0c0-.29.24-.53.53-.53h12.77c.29,0,.53.24.53.53h0c0,.29-.24.53-.53.53Z"/>
                <path class="st0" d="M54.03,141.2h-5.47c-.29,0-.53-.24-.53-.53h0c0-.29.24-.53.53-.53h5.47c.29,0,.53.24.53.53h0c0,.29-.24.53-.53.53Z"/>
                <path class="st105" d="M43.25,143.42h-9.72c-.29,0-.53-.24-.53-.53h0c0-.29.24-.53.53-.53h9.72c.29,0,.53.24.53.53h0c0,.29-.24.53-.53.53Z"/>
              </g>
              <g>
                <path class="st101" d="M27.54,140.31h0c-1.45,0-2.62,1.17-2.62,2.62v.26c0,.12.1.22.22.22h4.8c.12,0,.22-.1.22-.22v-.26c0-1.45-1.17-2.62-2.62-2.62Z"/>
                <path class="st47" d="M28.66,138.74c0,.62-.5,1.4-1.12,1.4s-1.12-.78-1.12-1.4.5-1.12,1.12-1.12,1.12.5,1.12,1.12Z"/>
              </g>
            </g>
            <g>
              <path class="st81" d="M119.65,114.2c-.86-.76-1.91-.54-2.61-.15-.68.39-1.06.99-1.06.99,0,0-.37-.6-1.06-.99-.7-.4-1.75-.61-2.61.15-2.04,1.79,1.02,6.1,3.67,7.05,2.66-.95,5.72-5.26,3.67-7.05Z"/>
              <path class="st34" d="M50.96,147.51c-.74-.65-1.64-.47-2.24-.12-.59.33-.91.85-.91.85,0,0-.32-.51-.91-.85-.6-.34-1.5-.53-2.24.12-1.75,1.54.87,5.23,3.15,6.05,2.28-.82,4.9-4.51,3.15-6.05Z"/>
              <path class="st63" d="M94.68,82.91c-.48-.42-1.07-.3-1.46-.08-.38.22-.59.55-.59.55,0,0-.21-.33-.59-.55-.39-.22-.98-.34-1.46.08-1.14,1,.57,3.4,2.05,3.93,1.48-.53,3.18-2.93,2.05-3.93Z"/>
              <path class="st2" d="M262.63,109.9c-1.27-1.12-2.82-.8-3.85-.21-1.01.57-1.56,1.45-1.56,1.45,0,0-.55-.88-1.56-1.45-1.03-.59-2.58-.9-3.85.21-3.01,2.65,1.5,8.99,5.41,10.4,3.91-1.41,8.43-7.75,5.41-10.4Z"/>
            </g>
            <g>
              <g>
                <circle class="st24" cx="143.75" cy="109.95" r="10.22" transform="translate(-35.65 133.85) rotate(-45)"/>
                <circle class="st5" cx="143.75" cy="109.95" r="8.63" transform="translate(-35.65 133.85) rotate(-45)"/>
                <circle class="st19" cx="143.75" cy="109.95" r="8.28"/>
                <path class="st76" d="M146.08,106.28l-.14-.08c-.35-.21-.74-.35-1.17-.43-.29-.05-.49-.3-.49-.59v-.18c0-.34-.27-.61-.61-.61s-.61.27-.61.61v.33c0,.25-.16.48-.4.57-1.01.36-1.64,1.18-1.64,2.22,0,1.4,1.13,2.04,2.35,2.51,1,.41,1.41.82,1.41,1.43,0,.67-.58,1.13-1.42,1.13-.65,0-1.32-.2-1.84-.55l-.2-.13s-.65-.37-.92.37c-.19.51.46.9.46.9l.12.08c.37.26.9.46,1.47.56.3.05.52.3.52.6v.22c0,.34.27.61.61.61h.01c.34,0,.61-.27.61-.61v-.37c0-.25.16-.48.4-.57,1.06-.37,1.74-1.26,1.74-2.34,0-1.22-.66-2.02-2.21-2.65-1.21-.5-1.56-.81-1.56-1.37,0-.45.33-.97,1.24-.97.85,0,1.38.3,1.61.43l.19.11s.66.39.94-.35c.19-.51-.46-.9-.46-.9Z"/>
              </g>
              <g>
                <circle class="st69" cx="38.43" cy="171.68" r="6.52" transform="translate(-94.89 56.88) rotate(-36.65)"/>
                <circle class="st5" cx="38.43" cy="171.68" r="5.51" transform="translate(-122.25 100.03) rotate(-53.35)"/>
                <circle class="st28" cx="38.43" cy="171.68" r="5.28"/>
                <path class="st76" d="M39.91,169.34l-.09-.05c-.23-.13-.47-.22-.75-.27-.18-.03-.32-.19-.32-.38v-.11c0-.21-.17-.39-.39-.39s-.39.17-.39.39v.21c0,.16-.1.31-.26.36-.65.23-1.05.76-1.05,1.42,0,.89.72,1.3,1.5,1.61.64.26.9.52.9.92,0,.43-.37.72-.91.72-.41,0-.84-.13-1.18-.35l-.13-.09s-.41-.24-.59.24c-.12.33.29.57.29.57l.07.05c.23.17.58.3.94.36.19.03.33.19.33.38v.14c0,.21.17.39.39.39h0c.21,0,.39-.17.39-.39v-.24c0-.16.1-.31.25-.36.68-.24,1.11-.81,1.11-1.5,0-.78-.42-1.29-1.41-1.69-.77-.32-1-.52-1-.87,0-.29.21-.62.79-.62.54,0,.88.19,1.03.28l.12.07s.42.25.6-.22c.12-.33-.29-.57-.29-.57Z"/>
              </g>
              <g>
                <circle class="st102" cx="275.75" cy="169.9" r="8.48"/>
                <circle class="st5" cx="275.75" cy="169.9" r="7.16"/>
                <circle class="st85" cx="275.75" cy="169.9" r="6.87" transform="translate(-39.37 244.75) rotate(-45)"/>
                <path class="st76" d="M277.68,166.85l-.11-.07c-.29-.17-.61-.29-.97-.36-.24-.04-.41-.25-.41-.49v-.15c0-.28-.23-.51-.51-.51s-.51.23-.51.51v.28c0,.21-.13.4-.33.47-.84.3-1.36.98-1.36,1.84,0,1.16.94,1.69,1.95,2.09.83.34,1.17.68,1.17,1.19,0,.55-.48.94-1.18.94-.54,0-1.09-.17-1.53-.46l-.17-.11s-.54-.31-.76.31c-.16.43.38.75.38.75l.1.07c.3.22.75.38,1.22.47.25.04.43.25.43.5v.19c0,.28.23.51.51.51h.01c.28,0,.51-.23.51-.51v-.31c0-.21.13-.4.33-.47.88-.31,1.44-1.05,1.44-1.94,0-1.02-.55-1.67-1.84-2.2-1-.42-1.29-.67-1.29-1.13,0-.37.27-.81,1.03-.81.7,0,1.15.25,1.34.36l.16.09s.55.32.78-.29c.16-.43-.38-.75-.38-.75Z"/>
              </g>
            </g>
            <line class="st10" x1="27.82" y1="235.48" x2="274.04" y2="235.48"/>
          </g>
          <text class="st79" transform="translate(100.56 159.64)"><tspan class="st115" x="0" y="0">C</tspan><tspan class="st36" x="32.24" y="0">R</tspan><tspan class="st73" x="64.56" y="0">M</tspan></text>
        </g>
      </g>
    </g>
  </g>
</svg>