<?xml version="1.0" encoding="UTF-8"?>
<svg id="Layer_1" xmlns="http://www.w3.org/2000/svg" version="1.1" viewBox="0 0 546.8 155.9">
  <!-- Generator: Adobe Illustrator 29.0.0, SVG Export Plug-In . SVG Version: 2.1.0 Build 186)  -->
  <defs>
    <style>
      .st0 {
        fill: #0084cc;
      }

      .st1 {
        fill: #fff;
      }

      .st2 {
        fill: #f49800;
      }

      .st3 {
        fill: #db0812;
      }

      .st4 {
        fill: #7ab929;
      }
    </style>
  </defs>
  <g>
    <g>
      <g>
        <path class="st1" d="M113.8,118.4h-12.2V33.4h19.8c5.6,0,9.8.3,12.7.8,2.9.5,5.4,1.5,7.6,2.8,3.5,2.1,6.4,5,8.5,8.8s3.2,8,3.2,12.5c0,7.9-2.7,14.2-8,18.9-5.3,4.7-12.6,7-21.7,7h-9.8s0,34.3,0,34.3ZM113.8,72.8h8.9c6.3,0,10.9-1.1,13.8-3.3s4.3-5.8,4.3-10.6-1.4-8.4-4.3-10.8-7.3-3.5-13.3-3.5h-9.3v28.2h0Z"/>
        <path class="st1" d="M163.7,118.4V33.4h11.5v85h-11.5Z"/>
        <path class="st1" d="M198.8,90.7c1,5.4,3.4,9.7,7.2,13,3.9,3.3,8.4,5,13.8,5s7.3-.9,10.4-2.8c3.1-1.8,5.6-4.4,7.5-7.8h13c-3,7.1-7.1,12.6-12.4,16.4-5.3,3.8-11.5,5.7-18.5,5.7s-9.1-.8-13-2.5c-3.9-1.7-7.5-4.2-10.7-7.5-3-3.2-5.3-6.8-7-11s-2.5-8.4-2.5-12.8.8-8.7,2.3-12.7c1.5-3.9,3.8-7.5,6.8-10.7,3.2-3.5,6.8-6.1,10.8-7.9,4-1.8,8.4-2.7,13.1-2.7s10.9,1.3,15.7,3.9c4.9,2.6,8.9,6.3,12,11,1.9,2.9,3.2,6.1,4.1,9.6.9,3.5,1.4,7.5,1.4,11.9v1.8h-54ZM240.1,80.3c-1.4-5.3-3.9-9.4-7.5-12.3-3.5-2.9-7.8-4.4-12.7-4.4s-9.4,1.5-13.1,4.5c-3.7,3-6.3,7-7.7,12.2h41,0Z"/>
        <path class="st1" d="M299.2,118.4l-14.8-24.3-15.5,24.3h-12.8l21.7-33.3-19.2-30.8h12.9l13.4,22,13.7-22h13.4l-20.4,30.5,20.6,33.7h-12.9Z"/>
      </g>
      <g>
        <path class="st1" d="M35.6,110.2c-4-.3-6.6-2-7.8-4.6h0c-1.3-2.6-.1-6,3.3-10.2h0c2-2.4,5.2-5.4,9.6-9.1h0c-7,0-13.2-1.6-18.7-4.7h0c-5.7-3.2-9.9-7.6-12.6-13.1h0c-4.2-8.6-3.8-16.7,1-24.3h0c4.3-7.1,11.5-12.5,21.4-16.3h0c5.3-2,10.5-3.2,15.8-3.5h0c4.6-.4,8.6-.1,12,.7h0c1.1-3.2,2.8-6,5-8.3h0c2.2-2.2,4.7-3.9,7.4-4.9h0c2-.8,4.1-1,6.2-.7h0c2.3.3,3.9,1.2,4.9,2.8h0c1,1.6,1.2,3.2.8,4.8h0c-.3,1.6-1.3,2.8-3.2,3.5h0c-1.1.4-2.3.7-3.6.6h0c-.8,0-1.8,0-3.3,0h0c-2.1-.2-3.7-.2-4.7,0h0c-1.7.5-3.1,1.8-4.2,3.9h0c3.3,1.5,6.4,3.4,9.3,5.7h0c2.9,2.4,5.2,5.1,6.9,8.1h0c4.7,8,4.9,16.1.6,24h0c-4,7.7-10.9,13.6-20.9,17.6h0c-2.3.9-4.3,1.6-5.9,2h0c-2.6.8-5.3,1.4-8.2,1.8h0c-2.8,1.9-5,3.7-6.4,5.5h0c-1.5,1.9-2,3.5-1.4,4.6h0c.7,1.3,1.7,2.3,3,3h0c1.9.7,4.7.7,8.6,0h0c4.4-.9,9.1-1.9,14.1-2.9h0c2.9-.8,7.5-1.8,13.6-3.2h0l11.2-2.7h0c8.8-2.1,16.2-2.6,22.1-1.5h0c7,1.2,12.2,4.6,15.6,10.3h0c4.5,7.6,3.1,15.3-4.3,23.1h0c-6.3,6.8-12.6,11.7-26.6,18.9h0c-32.7,16.7-59.5,7-62.7.2h0s19.9,14.6,59.5-5h0c8.8-4.3,15.4-9.5,20.2-15.1h0c5-5.7,6.4-10.2,4.3-13.8h0c-1.9-3.3-5.2-5.4-9.7-6.4h0c-4.8-1.1-11-.9-18.4.8h0l-22.6,5h0s-20.2,4.5-31.1,3.6h0ZM20.7,45.4c-1.6,5.6-.8,11.5,2.3,17.8h0c3.2,6.4,7.8,11,13.9,13.9h0c7,3.4,14.2,3.6,21.6.6h0c7.1-2.9,11.4-7.7,13-14.5h0c1.4-5.9.3-11.9-3.1-17.9h0c-3.4-6.1-8.1-10.3-14-12.9h0c-6.8-3-13.5-3.1-20.3-.5h0c-7.1,2.7-11.6,7.2-13.4,13.5Z"/>
        <path class="st3" d="M37.5,106.2c-4-.3-6.6-2-7.8-4.6h0c-1.2-2.6-.2-6,3.3-10.2h0c2-2.4,5.2-5.5,9.6-9.1h0c-7,0-13.2-1.6-18.7-4.6h0c-5.7-3.2-9.9-7.6-12.6-13.1h0c-4.2-8.6-3.8-16.7,1-24.3h0c4.3-7.1,11.5-12.5,21.4-16.3h0c5.3-2,10.5-3.2,15.8-3.5h0c4.6-.4,8.6-.1,12,.7h0c1.1-3.2,2.8-6,4.9-8.3h0c2.2-2.2,4.7-3.9,7.5-4.9h0c2-.8,4.1-1,6.2-.7h0c2.3.2,3.9,1.2,4.9,2.8h0c1,1.6,1.2,3.2.8,4.8h0c-.3,1.6-1.3,2.8-3.2,3.5h0c-1.1.5-2.3.6-3.6.6h0c-.8,0-1.8,0-3.3,0h0c-2.1-.2-3.7-.2-4.7.1h0c-1.7.5-3.1,1.8-4.2,3.9h0c3.3,1.5,6.5,3.4,9.3,5.6h0c2.9,2.4,5.2,5.1,6.9,8.1h0c4.7,8,4.9,16.1.6,24h0c-4,7.7-10.9,13.6-20.9,17.6h0c-2.3.9-4.3,1.6-5.9,2h0c-2.6.8-5.3,1.4-8.2,1.8h0c-2.8,1.9-5,3.7-6.4,5.4h0c-1.5,1.9-2,3.5-1.5,4.6h0c.7,1.3,1.7,2.3,3,3h0c1.9.7,4.7.7,8.6,0h0c4.4-.9,9.1-1.9,14.1-2.9h0c2.9-.8,7.4-1.8,13.5-3.2h0l11.2-2.7h0c8.8-2.1,16.1-2.6,22.1-1.5h0c7,1.2,12.2,4.6,15.6,10.3h0c4.5,7.6,3.1,15.3-4.3,23.2h0c-6.3,6.8-12.6,11.7-26.6,18.9h0c-32.7,16.7-59.5,7.1-62.7.2h0s19.9,14.6,59.5-5h0c8.7-4.3,15.4-9.5,20.2-15.1h0c5-5.7,6.4-10.2,4.3-13.8h0c-1.9-3.3-5.2-5.5-9.7-6.4h0c-4.8-1.1-11-.8-18.4.8h0l-22.6,5h0s-20.2,4.4-31.1,3.6h0ZM22.6,41.3c-1.6,5.6-.8,11.5,2.3,17.8h0c3.2,6.4,7.8,11.1,13.9,13.9h0c7,3.4,14.2,3.6,21.6.6h0c7.1-2.9,11.4-7.8,13-14.5h0c1.3-5.9.3-11.9-3.1-17.9h0c-3.4-6-8.1-10.3-14-12.9h0c-6.8-2.9-13.5-3.1-20.3-.5h0c-7.1,2.7-11.6,7.2-13.4,13.5h0Z"/>
      </g>
    </g>
    <g>
      <path class="st1" d="M318.9,49v-20.2h9c1.8,0,3.2.2,4.1.5.9.4,1.7,1,2.2,1.9.5.9.8,1.9.8,3s-.5,2.7-1.4,3.6c-.9,1-2.4,1.6-4.3,1.9.7.3,1.2.7,1.6,1,.8.7,1.5,1.6,2.2,2.7l3.5,5.5h-3.3l-2.7-4.2c-.8-1.2-1.4-2.1-1.9-2.8-.5-.6-1-1.1-1.4-1.3-.4-.3-.8-.4-1.2-.5-.3,0-.8,0-1.5,0h-3.1v9h-2.7,0ZM321.6,37.8h5.8c1.2,0,2.2-.1,2.9-.4.7-.3,1.2-.7,1.6-1.2.4-.6.5-1.2.5-1.8,0-1-.3-1.7-1-2.4-.7-.6-1.8-.9-3.3-.9h-6.4v6.7h0Z"/>
      <path class="st1" d="M311.6,38.9c0,9,7.3,16.2,16.2,16.2s16.2-7.3,16.2-16.2-7.3-16.2-16.2-16.2-16.2,7.3-16.2,16.2ZM312.7,38.9c0-8.4,6.8-15.1,15.1-15.1s15.1,6.8,15.1,15.1-6.8,15.1-15.1,15.1-15.1-6.8-15.1-15.1Z"/>
    </g>
  </g>
  <g>
    <path class="st0" d="M398.7,98c-1.9,2.4-4.1,4.2-6.5,5.5-2.4,1.3-5.2,1.9-8.4,1.9s-5.1-.5-7.4-1.4c-2.3-.9-4.3-2.2-6-3.9-1.7-1.7-3.1-3.7-4.1-6.1-1-2.4-1.5-5.1-1.5-8s.5-5.7,1.5-8c1-2.4,2.4-4.4,4.1-6.1,1.7-1.7,3.7-3,6-3.9,2.3-.9,4.8-1.4,7.4-1.4s5.6.6,7.7,1.7c2.2,1.2,4.1,2.7,5.8,4.7l.7.8,9.4-9.1-.7-.8c-2.9-3.2-6.3-5.8-10-7.5-3.8-1.7-8.1-2.6-13-2.6s-8.9.8-12.8,2.5c-3.9,1.7-7.3,3.9-10.2,6.8-2.9,2.9-5.1,6.3-6.8,10.2-1.7,3.9-2.5,8.2-2.5,12.7s.8,8.8,2.5,12.7c1.6,3.9,3.9,7.3,6.8,10.2,2.9,2.9,6.3,5.1,10.2,6.8s8.2,2.5,12.8,2.5,9.7-1,13.8-2.9c4.1-1.9,7.7-4.7,10.8-8.4l.6-.8-9.5-9-.7.9h0Z"/>
    <path class="st2" d="M456.7,90c1.6-1.1,3.1-2.5,4.3-3.9,1.2-1.5,2.2-3.2,2.9-5,.7-1.9,1.1-3.9,1.1-6s-.5-5.5-1.5-7.9c-1-2.4-2.4-4.5-4.3-6.3-1.8-1.8-4.1-3.1-6.6-4.1-2.5-1-5.4-1.5-8.5-1.5h-22.8v61.7h13.3v-22.4h3.6l15.4,22.4h14.5v-2l-15.7-22.5c1.5-.6,2.9-1.4,4.3-2.3h0ZM451.6,74.8c0,2.1-.7,3.8-2.1,5.2-1.5,1.4-3.3,2-5.6,2h-9.4v-14.5h9.5c1.2,0,2.3.2,3.3.6.9.4,1.7,1,2.4,1.6.6.7,1.1,1.4,1.4,2.3.3.9.5,1.8.5,2.7h0Z"/>
    <polygon class="st4" points="527.3 55.2 509.3 86.2 491.4 55.2 478.7 55.2 478.7 116.8 491.8 116.8 491.8 86.3 491.4 79.6 505.4 104.2 513.3 104.2 527.3 79.6 526.8 86.4 526.8 116.8 540.1 116.8 540.1 55.2 527.3 55.2"/>
  </g>
</svg>