<?xml version="1.0" encoding="UTF-8"?>
<svg id="Layer_1" xmlns="http://www.w3.org/2000/svg" version="1.1" viewBox="0 0 546.82 155.88">
  <!-- Generator: Adobe Illustrator 29.0.0, SVG Export Plug-In . SVG Version: 2.1.0 Build 186)  -->
  <defs>
    <style>
      .st0 {
        fill: #f49800;
      }

      .st1 {
        fill: #1d1d1b;
      }

      .st2 {
        fill: #0084cc;
      }

      .st3 {
        fill: #000;
      }

      .st4 {
        fill: #db0812;
      }

      .st5 {
        fill: #7ab929;
      }
    </style>
  </defs>
  <g>
    <g>
      <g>
        <path class="st3" d="M113.85,118.44h-12.25V33.39h19.78c5.56,0,9.79.27,12.69.82,2.91.54,5.44,1.46,7.62,2.75,3.54,2.06,6.36,5.01,8.46,8.84,2.1,3.83,3.16,7.98,3.16,12.45,0,7.9-2.67,14.19-8,18.88-5.34,4.68-12.56,7.03-21.66,7.03h-9.8v34.28ZM113.85,72.85h8.93c6.34,0,10.93-1.11,13.79-3.33,2.86-2.22,4.29-5.75,4.29-10.58s-1.45-8.42-4.34-10.75c-2.89-2.33-7.34-3.5-13.33-3.5h-9.33v28.17Z"/>
        <path class="st3" d="M163.71,118.44V33.39h11.49v85.04h-11.49Z"/>
        <path class="st3" d="M198.79,90.67c.97,5.36,3.38,9.7,7.24,13.02,3.86,3.32,8.44,4.98,13.76,4.98,3.8,0,7.26-.92,10.38-2.75,3.12-1.83,5.62-4.42,7.48-7.78h13.02c-2.96,7.13-7.09,12.57-12.4,16.36-5.31,3.78-11.48,5.66-18.52,5.66-4.75,0-9.09-.83-13.01-2.5-3.93-1.68-7.49-4.18-10.67-7.53-2.99-3.15-5.34-6.82-7.03-11-1.69-4.18-2.53-8.45-2.53-12.81s.77-8.72,2.31-12.66c1.54-3.93,3.81-7.5,6.81-10.74,3.19-3.5,6.79-6.14,10.79-7.91,4.02-1.76,8.39-2.65,13.15-2.65,5.64,0,10.88,1.32,15.72,3.94,4.85,2.63,8.85,6.3,12,11,1.87,2.93,3.25,6.13,4.15,9.61.9,3.49,1.35,7.47,1.35,11.94v1.81h-53.98ZM240.13,80.32c-1.44-5.31-3.92-9.4-7.46-12.3-3.53-2.9-7.78-4.36-12.71-4.36s-9.44,1.5-13.15,4.47c-3.71,2.98-6.26,7.04-7.66,12.19h40.99Z"/>
        <path class="st3" d="M299.21,118.44l-14.84-24.27-15.54,24.27h-12.81l21.74-33.31-19.25-30.85h12.93l13.41,21.99,13.69-21.99h13.41l-20.37,30.45,20.56,33.72h-12.92Z"/>
      </g>
      <g>
        <path class="st1" d="M35.63,110.22c-3.98-.33-6.56-2.01-7.83-4.62h0c-1.27-2.6-.15-6,3.31-10.21h0c1.97-2.4,5.18-5.45,9.61-9.13h0c-6.97-.04-13.2-1.58-18.66-4.65h0c-5.69-3.19-9.87-7.58-12.56-13.12h0c-4.2-8.64-3.84-16.74.98-24.34h0c4.31-7.06,11.46-12.47,21.44-16.27h0c5.29-2.01,10.53-3.19,15.75-3.55h0c4.59-.36,8.59-.13,12,.7h0c1.12-3.18,2.78-5.97,4.96-8.3h0c2.21-2.24,4.7-3.89,7.45-4.92h0c1.99-.78,4.06-1,6.21-.72h0c2.29.26,3.91,1.19,4.88,2.8h0c.99,1.64,1.25,3.24.8,4.79h0c-.26,1.62-1.34,2.79-3.21,3.53h0c-1.14.44-2.33.66-3.58.62h0c-.75.04-1.85,0-3.29-.06h0c-2.12-.21-3.69-.18-4.72.09h0c-1.69.52-3.08,1.82-4.21,3.92h0c3.35,1.51,6.45,3.4,9.32,5.65h0c2.86,2.39,5.18,5.09,6.91,8.09h0c4.68,8.05,4.91,16.06.62,24.03h0c-3.98,7.66-10.93,13.56-20.89,17.64h0c-2.3.95-4.26,1.61-5.87,1.96h0c-2.57.78-5.3,1.39-8.2,1.84h0c-2.84,1.88-4.97,3.71-6.41,5.46h0c-1.51,1.94-1.99,3.47-1.44,4.57h0c.67,1.34,1.68,2.35,3.01,2.99h0c1.88.7,4.73.74,8.58.04h0c4.4-.91,9.08-1.89,14.07-2.92h0c2.93-.76,7.46-1.84,13.55-3.21h0l11.24-2.69h0c8.81-2.07,16.15-2.57,22.07-1.52h0c7.02,1.21,12.21,4.62,15.57,10.3h0c4.49,7.57,3.1,15.29-4.31,23.14h0c-6.27,6.84-12.59,11.71-26.58,18.89h0c-32.72,16.74-59.47,7.04-62.72.2h0s19.87,14.64,59.53-5.02h0c8.75-4.33,15.39-9.53,20.16-15.13h0c4.98-5.65,6.42-10.25,4.33-13.84h0c-1.91-3.32-5.16-5.44-9.73-6.39h0c-4.83-1.13-10.98-.86-18.45.79h0l-22.57,5h0s-20.19,4.46-31.13,3.59ZM20.69,45.4c-1.59,5.59-.83,11.52,2.34,17.81h0c3.2,6.37,7.83,11.03,13.87,13.91h0c6.97,3.38,14.2,3.59,21.61.56h0c7.08-2.88,11.42-7.74,13-14.51h0c1.36-5.9.32-11.88-3.08-17.88h0c-3.4-6.06-8.09-10.34-14.05-12.92h0c-6.75-2.96-13.51-3.13-20.32-.51h0c-7.12,2.73-11.58,7.22-13.37,13.54Z"/>
        <path class="st4" d="M37.5,106.15c-3.97-.31-6.57-2.01-7.84-4.6h0c-1.25-2.61-.16-6.01,3.31-10.21h0c1.97-2.41,5.18-5.46,9.62-9.14h0c-6.97-.04-13.2-1.58-18.67-4.64h0c-5.69-3.2-9.86-7.59-12.57-13.13h0c-4.19-8.63-3.83-16.74.98-24.34h0c4.32-7.06,11.47-12.47,21.45-16.27h0c5.28-2.01,10.53-3.19,15.75-3.55h0c4.59-.36,8.59-.14,12.01.71h0c1.12-3.22,2.77-5.98,4.95-8.31h0c2.23-2.24,4.71-3.89,7.46-4.94h0c1.99-.76,4.06-.98,6.22-.7h0c2.28.24,3.9,1.18,4.87,2.79h0c.98,1.63,1.25,3.22.79,4.78h0c-.26,1.62-1.33,2.8-3.21,3.52h0c-1.13.45-2.32.64-3.57.61h0c-.75.06-1.85.03-3.28-.05h0c-2.14-.21-3.7-.16-4.72.1h0c-1.69.53-3.09,1.82-4.22,3.92h0c3.35,1.52,6.46,3.41,9.32,5.65h0c2.86,2.39,5.17,5.09,6.91,8.09h0c4.68,8.05,4.92,16.06.62,24.02h0c-3.97,7.68-10.94,13.57-20.88,17.65h0c-2.29.94-4.26,1.59-5.88,1.96h0c-2.57.78-5.3,1.38-8.2,1.84h0c-2.84,1.89-4.97,3.69-6.41,5.45h0c-1.52,1.95-1.99,3.48-1.45,4.58h0c.69,1.35,1.7,2.35,3.02,3h0c1.88.72,4.74.73,8.58.04h0c4.39-.91,9.07-1.89,14.06-2.91h0c2.92-.78,7.44-1.85,13.54-3.22h0l11.25-2.71h0c8.8-2.06,16.14-2.56,22.06-1.5h0c7.01,1.19,12.2,4.61,15.56,10.29h0c4.51,7.59,3.12,15.3-4.3,23.15h0c-6.27,6.83-12.59,11.71-26.59,18.88h0c-32.71,16.73-59.46,7.05-62.71.21h0s19.88,14.65,59.53-5.02h0c8.74-4.34,15.39-9.53,20.16-15.11h0c4.99-5.65,6.42-10.25,4.34-13.85h0c-1.92-3.34-5.18-5.46-9.73-6.4h0c-4.84-1.12-10.98-.85-18.45.81h0l-22.58,4.99h0s-20.17,4.45-31.12,3.58ZM22.56,41.34c-1.6,5.59-.83,11.53,2.34,17.81h0c3.21,6.38,7.83,11.05,13.86,13.92h0c6.98,3.39,14.2,3.58,21.61.57h0c7.09-2.9,11.42-7.75,13.02-14.53h0c1.35-5.89.31-11.86-3.09-17.87h0c-3.4-6.05-8.07-10.33-14.04-12.93h0c-6.75-2.94-13.51-3.11-20.33-.49h0c-7.11,2.73-11.58,7.22-13.36,13.53Z"/>
      </g>
    </g>
    <g>
      <path class="st3" d="M318.92,49.04v-20.2h8.95c1.8,0,3.17.19,4.11.54.93.36,1.68,1.02,2.25,1.93.55.92.83,1.94.83,3.05,0,1.44-.46,2.65-1.38,3.63-.93.98-2.37,1.61-4.31,1.88.72.34,1.25.68,1.62,1.01.78.71,1.52,1.61,2.22,2.68l3.49,5.48h-3.33l-2.68-4.19c-.78-1.21-1.42-2.14-1.93-2.78-.51-.64-.96-1.09-1.36-1.35-.41-.26-.81-.44-1.23-.53-.3-.07-.8-.1-1.48-.1h-3.1v8.96h-2.67ZM321.59,37.77h5.75c1.22,0,2.17-.12,2.86-.37.69-.26,1.22-.66,1.58-1.21.36-.57.54-1.16.54-1.81,0-.96-.34-1.74-1.04-2.36-.7-.62-1.8-.93-3.3-.93h-6.39v6.69Z"/>
      <path class="st3" d="M311.56,38.94c0,8.96,7.29,16.25,16.25,16.25s16.25-7.29,16.25-16.25-7.29-16.25-16.25-16.25-16.25,7.29-16.25,16.25ZM312.67,38.94c0-8.35,6.79-15.15,15.15-15.15s15.14,6.8,15.14,15.15-6.79,15.15-15.14,15.15-15.15-6.79-15.15-15.15Z"/>
    </g>
  </g>
  <g>
    <path class="st2" d="M398.68,97.98c-1.9,2.37-4.1,4.23-6.54,5.51-2.42,1.27-5.23,1.92-8.38,1.92-2.63,0-5.13-.46-7.44-1.38-2.3-.91-4.32-2.22-6.02-3.89-1.7-1.67-3.06-3.72-4.06-6.11-1-2.38-1.5-5.09-1.5-8.04s.5-5.66,1.5-8.04c.99-2.38,2.36-4.44,4.06-6.11,1.69-1.67,3.72-2.98,6.02-3.89,2.31-.92,4.81-1.38,7.44-1.38,2.97,0,5.57.57,7.71,1.71,2.18,1.15,4.13,2.73,5.81,4.67l.72.84,9.42-9.12-.67-.75c-2.91-3.25-6.29-5.78-10.04-7.49-3.76-1.72-8.14-2.59-13.04-2.59-4.56,0-8.85.84-12.76,2.5-3.91,1.65-7.34,3.94-10.19,6.8-2.86,2.86-5.14,6.29-6.8,10.19-1.66,3.91-2.5,8.18-2.5,12.68s.84,8.77,2.5,12.68c1.65,3.91,3.94,7.34,6.8,10.19,2.86,2.86,6.28,5.14,10.19,6.8,3.91,1.66,8.21,2.5,12.76,2.5,5.07,0,9.72-.97,13.84-2.89,4.12-1.91,7.74-4.74,10.76-8.39l.62-.75-9.52-9.03-.71.89Z"/>
    <path class="st0" d="M456.67,89.97c1.63-1.13,3.07-2.46,4.29-3.94,1.23-1.5,2.21-3.19,2.92-5.04.71-1.86,1.07-3.87,1.07-5.99,0-2.84-.5-5.51-1.49-7.93-1-2.43-2.44-4.55-4.28-6.31-1.84-1.75-4.07-3.14-6.63-4.13-2.55-.99-5.42-1.49-8.53-1.49h-22.76v61.67h13.32v-22.38h3.65l15.39,22.38h14.49v-2.04l-15.7-22.49c1.48-.6,2.91-1.38,4.27-2.33ZM451.62,74.84c0,2.11-.7,3.79-2.13,5.15-1.45,1.37-3.27,2.04-5.56,2.04h-9.36v-14.47h9.52c1.23,0,2.34.21,3.29.62.94.41,1.74.96,2.35,1.62.63.68,1.09,1.44,1.41,2.31.32.88.48,1.8.48,2.72Z"/>
    <polygon class="st5" points="527.28 55.15 509.33 86.22 491.38 55.15 478.66 55.15 478.66 116.82 491.82 116.82 491.82 86.33 491.37 79.57 505.39 104.18 513.35 104.18 527.29 79.58 526.84 86.4 526.84 116.82 540.08 116.82 540.08 55.15 527.28 55.15"/>
  </g>
</svg>
